<svg width="317" height="243" viewBox="0 0 317 243" fill="none" xmlns="http://www.w3.org/2000/svg">
<path d="M153.456 219.279C144.61 219.301 135.76 219.453 126.928 220.154C123.598 220.419 120.337 221 117 221.243C110.333 221.711 103.787 222.586 97.0982 222.989C91.7087 223.312 86.2974 223.505 80.9261 223.919C75.7236 224.316 70.4946 224.201 65.3145 223.578C61.6172 223.102 57.8981 222.851 54.2627 222.078C50.0783 221.162 45.8098 220.681 41.5259 220.644C35.4814 220.673 29.5934 220.677 23.8073 222.176C21.7767 222.703 19.2876 223.57 17.7482 224.674C14.2147 227.215 13.7453 233.514 17.2642 236.135C23.2032 240.55 35.8745 242.282 44.1934 242.361C53.3165 242.452 62.174 241.969 71.3081 241.686C79.798 241.421 88.2625 241.044 96.7816 241.058C114.147 241.084 131.513 241.058 148.846 240.23C165.127 239.45 181.452 239.719 197.773 239.719C214.513 239.719 231.129 239.813 247.745 241.399C254.983 242.093 262.359 242.336 269.634 242.819C276.151 243.255 282.411 242.819 288.921 242.409C294.303 242.104 299.62 241.087 304.733 239.385C308.652 238.045 315.65 233.892 316.84 230.697C320.21 221.748 269.357 221.962 261.551 221.984C252.818 222.009 244.015 222.212 235.285 221.984C231.64 221.825 228.009 221.432 224.415 220.808C220.845 220.248 217.249 220.39 213.632 220.158C198.537 219.177 183.428 219.319 168.271 219.319C163.315 219.279 158.387 219.254 153.456 219.279Z" fill="#E7E7E7"/>
<path d="M70.049 72.707L68.073 68.2524L66.126 69.0112L66.8029 72.3585L65.7148 72.2931L67.8692 75.9018L70.0017 75.3826L70.049 72.707Z" fill="#C48270"/>
<path d="M55.318 107.142L70.2746 96.5082L66.7301 74.9216L71.0097 74.112L80.8534 98.672L59.6594 117.405L55.318 107.142Z" fill="#CCD2D9"/>
<path d="M268.52 19.9675V17.9744L267.603 16.1119C267.544 16.05 267.473 16.0007 267.394 15.967C267.315 15.9333 267.23 15.9159 267.145 15.9159C267.059 15.9159 266.974 15.9333 266.895 15.967C266.816 16.0007 266.745 16.05 266.686 16.1119L265.915 17.9562V19.9675C265.187 19.9675 264.015 20.5302 264.015 21.2236C264.018 21.3919 264.055 21.5579 264.123 21.7121C264.19 21.8664 264.288 22.0058 264.409 22.1224C264.531 22.2391 264.674 22.3307 264.832 22.392C264.989 22.4533 265.156 22.4831 265.325 22.4797H265.915V89.4397C265.915 93.219 263.902 96.363 261.009 96.294C258.768 96.2432 256.81 94.3517 256.482 91.2658C256.443 90.9299 256.28 90.6205 256.025 90.3973C255.771 90.1741 255.442 90.0528 255.103 90.0569H255.052C254.861 90.0518 254.67 90.0874 254.494 90.1616C254.317 90.2357 254.158 90.3466 254.028 90.4868C253.898 90.627 253.799 90.7933 253.739 90.9746C253.678 91.1559 253.657 91.348 253.677 91.5381C254.251 95.9273 257.76 99.0677 261.097 99.0677C262.306 99.1058 263.502 98.8134 264.556 98.2222C265.611 97.6309 266.483 96.7633 267.079 95.7132C268.618 93.0375 268.535 90.1005 268.535 87.1707V22.4616H268.931C269.1 22.465 269.268 22.4351 269.425 22.3738C269.582 22.3125 269.726 22.2209 269.847 22.1043C269.969 21.9876 270.066 21.8482 270.134 21.694C270.202 21.5398 270.238 21.3738 270.242 21.2055C270.238 20.512 269.244 19.9675 268.52 19.9675Z" fill="#333333"/>
<path d="M268.52 57.4954L265.889 54.7835V50.2999H268.52V57.4954Z" fill="black"/>
<path d="M250.289 56.7584L250.692 54.2897C252.091 45.7332 255.404 37.6008 260.383 30.4958L266.675 21.5213C259.371 21.8234 252.281 24.0743 246.145 28.0396C240.008 32.0049 235.05 37.5394 231.787 44.0664C229.789 48.0719 228.477 52.3827 227.905 56.8202C231.572 55.7705 235.371 55.2497 239.186 55.2736C242.938 55.2564 246.674 55.756 250.289 56.7584Z" fill="#3B455A"/>
<path d="M283.204 51.7956L284.296 57.0924H284.7C288.623 55.856 292.718 55.2434 296.832 55.2772C300.963 55.2522 305.073 55.8645 309.016 57.0924C308.323 51.4426 306.435 46.004 303.477 41.1366C299.827 35.1307 294.685 30.1667 288.548 26.7251C282.411 23.2836 275.488 21.4811 268.448 21.4923C268.011 21.4923 267.574 21.4923 267.141 21.514L272.167 28.804C278.317 36.3045 281.148 43.9284 283.204 51.7956Z" fill="#3B455A"/>
<path d="M250.692 54.2897L250.289 56.7584L250.394 56.7875C254.637 54.9178 260.452 53.8432 266.875 53.8432C273.637 53.8432 279.74 55.034 284.041 57.0924H284.281L283.189 51.7956C281.148 43.9284 278.317 36.3045 272.152 28.7931L267.112 21.5032L266.661 21.5213L260.383 30.4958C255.404 37.6008 252.091 45.7332 250.692 54.2897Z" fill="white"/>
<path d="M207.264 111.186L205.211 109.255L205.179 106.771L204.647 106.51L204.298 107.149L203.679 105.098L202.227 104.132L200.058 104.956L198.814 107L199.862 109.062L202.169 110.565L204.866 113.332L207.264 111.186Z" fill="#EFD1B9"/>
<path d="M207.064 108.859L203.374 113.219L213.276 128.227L216.962 129.415L232.665 116.922L228.465 108.369L216.754 118.298L207.064 108.859Z" fill="#CCD2D9"/>
<path d="M256.89 226.692L257.436 229.205L253.094 232.777L250.099 230.798L251.995 227.76L256.34 224.184L256.89 226.692Z" fill="#282E3A"/>
<path d="M241.693 149.542L246.544 160.695L246.999 192.076L256.97 225.828L252.334 227.88L231.991 188.685L229.673 176.273L228.756 150.126L241.693 149.542Z" fill="#3B455A"/>
<path d="M218.221 152.04L217.839 184.928L224.051 227.331H228.829L231.846 188.206L238.381 149.077L218.221 152.04Z" fill="#3B455A"/>
<path d="M228.8 226.765V229.339L223.636 231.917L221.052 229.339L223.636 226.765H228.8Z" fill="#282E3A"/>
<path d="M227.628 107.508L240.314 107.04C240.314 107.04 247.905 113.684 251.828 130.95C255.831 148.529 251.1 173.84 251.1 173.84C251.1 173.84 217.06 169.313 211.478 168.613L219.993 133.902L227.628 107.508Z" fill="#CCD2D9"/>
<path d="M232.177 108.801L236.624 108.369C236.638 107.183 236.559 105.999 236.387 104.826C237.621 104.394 239.051 103.736 239.266 102.459C239.312 102.05 239.289 101.636 239.197 101.235C238.91 99.5578 238.622 97.8817 238.331 96.2069C238.27 95.6201 238.093 95.0511 237.81 94.5333C237.257 93.6619 236.184 93.2771 235.165 93.0992C232.563 92.6454 229.728 93.2045 227.708 94.9144C227.151 95.3473 226.717 95.918 226.449 96.5699C226.085 97.5865 226.354 98.7083 226.627 99.7538C226.882 100.722 227.134 101.69 227.384 102.658C227.675 103.769 228.112 105.029 229.167 105.446C229.735 105.668 230.408 105.606 230.921 105.933C231.813 106.488 231.704 107.824 232.177 108.801Z" fill="#EFD1B9"/>
<path d="M217.697 92.0536C217.685 90.9226 217.807 89.7942 218.061 88.6919C218.458 86.8766 220.586 86.0852 222.428 85.9545C226.409 85.6822 230.248 83.8815 234.135 85.2683C236.358 86.0634 239.342 86.2558 241.351 87.374C242.182 87.8668 242.879 88.5548 243.382 89.378C244.266 90.794 244.735 92.4291 244.735 94.0976C244.735 95.7661 244.266 97.4011 243.382 98.8172C242.973 99.4378 242.512 100.022 242.002 100.563C240.951 101.696 239.695 103.105 238.25 103.515C238.218 102.226 239.4 98.1673 238.411 97.1109C236.839 95.4336 233.283 96.0217 231.329 96.4247C229.2 96.8713 227.304 98.3706 225.193 98.6901C223.672 98.9188 221.736 98.1746 220.463 97.3904C218.425 96.1597 217.748 94.1266 217.697 92.0536Z" fill="#3B455A"/>
<path d="M231.125 109.073L217.788 162.303L216.696 169.284L233.316 171.462C233.316 171.462 232.661 145.973 232.879 142.575C233.098 139.177 235.561 131.825 235.94 123.904C236.158 119.322 237.617 111.095 236.598 108.416L231.125 109.073Z" fill="white"/>
<path d="M269.092 79.6194L268.451 74.6965L270.551 74.3334L271.737 77.6045L272.647 76.9764L272.68 81.2531L270.551 81.9247L269.092 79.6194Z" fill="#EFD1B9"/>
<path d="M300.238 105.69L281.504 100.465L273.156 79.8009L269.001 81.3511L273.437 107.93L294.918 119.46L300.238 105.69Z" fill="#8EC3CB"/>
<path d="M296.414 155.721L296.385 162.314L287.429 190.853L289.489 220.542L283.975 221.613L275.336 185.298L275.726 174.625L279.9 152.878L296.414 155.721Z" fill="#3B455A"/>
<path d="M289.387 163.494L297.949 223.995L301.974 224.017L304.678 191.049L310.348 158.099L289.387 163.494Z" fill="#3B455A"/>
<path d="M284.882 222.372L280.657 226.794L281.857 229.049L290.558 224.935L288.975 221.639L284.882 222.372Z" fill="#282E3A"/>
<path d="M298.015 225.407L292.815 228.631L293.415 231.118L302.869 229.303L302.164 225.716L298.015 225.407Z" fill="#282E3A"/>
<path d="M284.579 89.5632C288.149 89.8427 291.494 86.9311 295.013 87.6753C297.294 88.1582 299.088 90.1912 299.776 92.4712C300.13 93.5267 300.167 94.6625 299.882 95.7386C299.657 96.4162 299.302 97.0438 298.837 97.5865C298.235 98.3166 297.505 98.9317 296.683 99.4017C297.126 100.123 297.634 100.802 298.201 101.431L293.251 103.294C292.888 102.35 292.524 101.402 292.16 100.458C291.668 100.431 291.18 100.353 290.704 100.226C289.227 99.8026 287.893 98.9892 286.842 97.8714C285.79 96.7537 285.062 95.3732 284.732 93.8761C284.492 92.4514 284.44 91.0013 284.579 89.5632Z" fill="#EFD1B9"/>
<path d="M285.486 90.6414L296.534 89.3853L298.634 97.8115L301.767 95.3574L300.224 81.5834L284.645 81.1732L277.88 85.0868L278.146 89.0476L284.157 93.1246L285.486 90.6414Z" fill="#3B455A"/>
<path d="M289.703 104.575L302.844 99.4489C302.844 99.4489 308.907 112.395 314.125 130.921C319.344 149.447 312.2 175.104 312.2 175.104C312.2 175.104 275.656 167.476 269.659 166.275L289.703 104.575Z" fill="#8EC3CB"/>
<path d="M265.216 82.1026L264.91 77.147L267.028 76.9256L267.989 80.2692L268.942 79.7029L268.688 83.9723L266.519 84.4987L265.216 82.1026Z" fill="#EFD1B9"/>
<path d="M294.529 110.206L276.191 103.736L269.259 82.5564L265.009 83.8234L267.64 110.638L288.291 123.588L294.529 110.206Z" fill="#8EC3CB"/>
<path d="M225.332 15.8614C189.305 20.6536 172.678 2.79183 170.455 0.181535C170.455 0.181535 170.422 -0.0617054 170.32 0.0254254C170.236 -0.0762272 170.167 0.159752 170.167 0.159752C167.547 2.38522 148.253 17.3463 113.474 6.85067C113.474 6.85067 102.899 69.9406 121.433 97.5211C141.229 126.975 159.152 136.842 159.25 136.781C159.337 136.861 178.763 130.159 202.893 104.081C225.47 79.6847 225.332 15.8614 225.332 15.8614Z" fill="#7FC5A3"/>
<path d="M219.626 21.9787C186.954 26.1973 171.834 10.2778 169.81 7.94343C169.81 7.94343 169.781 7.72561 169.69 7.80548C169.61 7.71108 169.548 7.92165 169.548 7.92165C167.176 9.90024 149.69 23.1949 118.121 13.7957C118.121 13.7957 108.612 69.9587 125.468 94.5405C143.471 120.796 159.603 131.117 159.694 131.059C159.774 131.132 177.525 123.682 199.385 100.494C219.837 78.8062 219.626 21.9787 219.626 21.9787Z" fill="#85D3AA"/>
<path d="M169.086 13.498C169.086 13.498 169.152 13.2729 169.232 13.371C169.33 13.2875 169.359 13.5198 169.359 13.5198C171.437 15.9159 186.707 31.9879 219.578 28.4518C219.888 22.6722 219.873 19.0417 219.873 19.0417C187.187 23.2567 172.063 7.33715 170.04 5.0064C170.04 5.0064 170.014 4.78494 169.92 4.86481C169.843 4.77405 169.781 4.98462 169.781 4.98462C167.401 6.96321 149.934 20.2543 118.354 10.8623C118.354 10.8623 117.746 14.4456 117.113 20.1926C148.984 28.9565 166.648 15.5311 169.086 13.498Z" fill="black"/>
<path d="M208.832 36.9289C184.141 40.1963 169.894 27.1594 168.362 25.366C168.362 25.366 168.344 25.199 168.271 25.2607C168.213 25.1881 168.166 25.3514 168.166 25.3514C166.372 26.8762 150.363 37.459 126.52 30.2634C126.52 30.2634 122.048 73.1898 134.755 92.1008C148.325 112.293 160.615 119.061 160.684 119.017C160.742 119.071 174.061 114.479 190.604 96.599C206.081 79.8699 208.832 36.9289 208.832 36.9289Z" fill="white"/>
<path d="M99.2234 229.023L99.1543 229.76L98.9177 232.203L93.9613 234.32L91.8325 231.713L94.4307 229.433L94.6709 229.332L94.7 229.637L99.2234 229.023Z" fill="#282E3A"/>
<path d="M99.4745 228.987L99.2234 229.023L99.3872 227.317L94.6564 229.332L90.7444 188.086L90.2531 186.137C93.9649 186.191 98.3719 186.249 102.815 186.282L99.4745 228.987Z" fill="#8EC3CB"/>
<path d="M99.2234 229.023L94.7 229.637L94.6709 229.332L99.3872 227.317L99.2234 229.023Z" fill="#909497"/>
<path d="M119.304 186.26L118.39 197.057L109.238 225.048L104.766 224.456L104.693 225.001H104.667L107.961 196.157L105.141 186.304C110.33 186.329 115.406 186.329 119.304 186.26Z" fill="#8EC3CB"/>
<path d="M109.238 225.048L109.518 225.084L111.563 227.887L108.856 230.058L104.435 226.939L104.693 225.001L109.063 225.582L109.238 225.048Z" fill="#282E3A"/>
<path d="M109.238 225.048L109.063 225.582L104.693 225.001L104.766 224.456L109.238 225.048Z" fill="#3E3D3B"/>
<path d="M108.023 118.875C107.48 117.525 106.931 116.149 105.992 115.027C105.288 114.184 104.393 113.52 103.38 113.091C102.367 112.663 101.267 112.481 100.17 112.562H100.137C100.213 112.279 100.257 111.988 100.268 111.694C100.297 110.108 99.1106 108.79 98.3464 107.407C98.2736 107.276 98.2081 107.142 98.1426 106.997C97.9813 106.619 97.8511 106.23 97.7532 105.831L98.088 105.991C98.8285 106.641 99.7358 107.072 100.708 107.236L109.89 111.593L113.572 126.547L112.622 126.96C109.737 125.835 109.067 121.468 108.023 118.875Z" fill="white"/>
<path d="M88.2844 123.486C87.7094 126.187 85.566 128.169 83.4735 130.046C85.0201 126.096 86.6213 122.615 88.1606 119.609C88.4778 120.878 88.5199 122.2 88.2844 123.486Z" fill="#3B455A"/>
<path d="M81.9742 143.308C83.6918 144.223 85.6788 144.514 87.6257 144.51C89.1832 144.51 90.7626 144.332 92.2837 144.662C93.8048 144.993 95.3114 145.984 95.6935 147.491C95.9082 148.322 95.8391 149.364 96.5596 149.832C96.917 150.022 97.3202 150.109 97.7241 150.083C98.9577 150.115 100.355 150.083 101.185 149.175C102.466 147.763 101.716 144.931 103.448 144.129C103.954 143.896 104.54 143.933 105.09 143.838C107.433 143.443 108.576 140.8 108.365 138.375C109.162 139.068 110.053 139.682 111.09 139.703C112.284 139.729 113.325 138.959 114.264 138.226C114.875 137.746 115.497 137.282 116.127 136.821L116.163 136.973L125.658 185.984C124.53 186.126 122.259 186.217 119.318 186.267L119.992 178.28L103.441 180.317L105.155 186.296H102.837L103.31 180.255L87.491 174.919L90.2531 186.137C84.5689 186.057 80.5222 185.977 80.5222 185.977C80.5222 185.977 77.0687 160.651 80.1365 141.932C80.674 142.483 81.294 142.947 81.9742 143.308Z" fill="white"/>
<path d="M103.296 180.241L102.822 186.282C98.3792 186.249 93.9722 186.191 90.2604 186.137L87.4765 174.904L103.296 180.241Z" fill="white"/>
<path d="M119.977 178.284L119.304 186.271C115.406 186.34 110.33 186.34 105.141 186.311L103.427 180.332L119.977 178.284Z" fill="white"/>
<path d="M133.591 116.614C133.733 116.004 136.942 112.744 137.128 113.194C137.31 113.689 137.443 114.201 137.525 114.722C138.831 114.021 141.997 111.288 141.804 114.446C141.72 115.815 139.315 118.182 138.111 118.596L138.03 118.625L133.609 117.855C133.486 117.451 133.479 117.021 133.591 116.614Z" fill="#E2D0B5"/>
<path d="M133.558 117.852H133.613C133.824 118.494 134.34 118.97 134.843 119.732C135.894 119.336 136.968 118.984 138.034 118.621L139.18 118.821C133.314 126.369 123.995 131.052 116.116 136.81L113.59 126.55L133.558 117.852Z" fill="white"/>
<path d="M111.076 139.703C110.039 139.682 109.147 139.068 108.35 138.375C108.308 137.879 108.202 137.391 108.034 136.922C107.069 134.229 104.828 132.232 103.128 129.926C99.8129 125.428 97.5749 119.416 99.6128 114.09C99.8209 113.594 100.001 113.086 100.151 112.569H100.184C101.281 112.488 102.382 112.67 103.394 113.099C104.407 113.527 105.303 114.191 106.007 115.034C106.938 116.156 107.495 117.532 108.037 118.883C109.082 121.475 109.751 125.842 112.652 126.982L113.601 126.568L116.127 136.828C115.497 137.289 114.875 137.754 114.264 138.233C113.31 138.959 112.269 139.729 111.076 139.703Z" fill="white"/>
<path d="M133.609 117.863L138.03 118.632C136.964 118.995 135.891 119.358 134.839 119.743C134.337 118.981 133.82 118.505 133.609 117.863Z" fill="#D0CFD1"/>
<path d="M97.7205 105.646C96.8616 101.925 97.7933 96.0508 100.286 93.858C101.265 92.9939 102.386 92.8378 103.634 92.8306C104.227 92.8306 104.424 92.9758 104.726 92.925C105.654 94.1157 106.276 95.5716 106.181 96.9475C106.083 98.1056 105.413 98.9878 105.363 100.215C105.257 102.477 102.011 104.749 103.256 106.997C102.447 107.273 101.583 107.35 100.737 107.222L98.1171 105.976C97.9691 105.88 97.8369 105.769 97.7205 105.646Z" fill="#E5B6A8"/>
<path d="M100.723 107.24C99.7504 107.076 98.8431 106.644 98.1026 105.995L100.723 107.24Z" fill="#E5B6A8"/>
<path d="M105.348 100.233C105.399 98.9878 106.076 98.1056 106.167 96.9657C106.28 95.5897 105.657 94.1339 104.711 92.9431C104.898 92.8988 105.074 92.8199 105.232 92.7108C105.675 92.4349 106.076 91.7088 106.287 91.117C107.444 91.8431 108.285 93.1646 108.518 95.1758C108.772 97.3541 108.769 99.6667 108.015 101.852C107.262 104.038 105.665 106.096 103.587 106.906C103.463 106.953 103.343 106.997 103.223 107.033C101.996 104.767 105.242 102.495 105.348 100.233Z" fill="#E5B6A8"/>
<path d="M78.5207 138.868C78.741 140.029 79.3065 141.097 80.1438 141.932C80.6757 142.482 81.2895 142.946 81.9633 143.308C83.6809 144.223 85.6679 144.514 87.6148 144.51C89.1723 144.51 90.7516 144.332 92.2728 144.662C93.7939 144.993 95.3005 145.984 95.6826 147.491C95.8973 148.322 95.8281 149.364 96.5487 149.832C96.9061 150.022 97.3092 150.109 97.7132 150.083C98.9468 150.115 100.344 150.083 101.174 149.175C102.455 147.763 101.705 144.931 103.437 144.129C103.943 143.896 104.529 143.933 105.079 143.838C107.422 143.443 108.565 140.8 108.354 138.375C108.312 137.879 108.205 137.391 108.037 136.922C107.073 134.229 104.831 132.232 103.132 129.926C99.8166 125.428 97.5785 119.416 99.6164 114.09C99.8245 113.594 100.004 113.086 100.155 112.569C100.231 112.286 100.275 111.995 100.286 111.702C100.315 110.115 99.1288 108.797 98.3646 107.414C98.2918 107.283 98.2263 107.149 98.1608 107.004C97.9995 106.627 97.8693 106.237 97.7714 105.838C97.7714 105.777 97.7387 105.715 97.7241 105.65C95.3733 103.312 94.4489 98.966 95.981 95.7204C96.0683 95.5353 96.1629 95.3574 96.2612 95.1758C96.1629 95.3537 96.0683 95.5389 95.981 95.7204C94.4344 98.966 95.3733 103.312 97.7241 105.65C96.8653 101.928 97.7969 96.0544 100.29 93.8616C101.269 92.9976 102.389 92.8415 103.638 92.8342C104.231 92.8342 104.427 92.9794 104.729 92.9286C104.916 92.8842 105.092 92.8054 105.25 92.6962C105.694 92.4203 106.094 91.6942 106.305 91.1025C107.462 91.8286 108.303 93.15 108.536 95.1613C108.791 97.3396 108.787 99.6522 108.034 101.838C107.28 104.023 105.683 106.082 103.605 106.891C103.481 106.938 103.361 106.982 103.241 107.018C103.354 107.219 103.489 107.407 103.645 107.577C104.784 108.826 106.611 109.117 108.288 109.335C108.49 109.377 108.698 109.369 108.896 109.313C109.048 109.237 109.174 109.118 109.259 108.972C109.345 108.826 109.385 108.658 109.376 108.489C109.352 108.152 109.28 107.821 109.162 107.505C108.19 104.118 109.915 100.244 110.206 96.8313C110.497 93.4187 109.788 89.7156 107.044 87.4103C106.579 87.5377 106.128 87.7104 105.697 87.9258C105.654 87.8714 105.61 87.8133 105.563 87.7588C101.592 83.0029 95.9883 87.069 92.9751 90.6995C90.4896 93.6946 88.4154 97.1327 87.4656 100.93C86.5776 104.481 86.2792 109.701 86.6577 113.335C86.876 115.456 87.7167 117.536 88.1606 119.612C88.4778 120.881 88.5199 122.203 88.2844 123.49C87.7094 126.191 85.566 128.173 83.4735 130.05C83.2843 130.534 83.095 131.028 82.9058 131.531C82.7166 132.032 82.5419 132.54 82.3454 133.056C82.2241 133.39 82.1028 133.728 81.9815 134.069C82.0955 133.728 82.2168 133.39 82.3454 133.056C82.531 132.54 82.7093 132.032 82.9058 131.531C83.1023 131.03 83.2697 130.536 83.4735 130.05L82.611 130.82C80.282 132.932 77.9894 135.779 78.5207 138.868Z" fill="#3B455A"/>
<path d="M68.6334 80.5633L13.2867 87.0582L8.77793 48.8513L34.6699 30.4921L64.1282 42.3564L68.6334 80.5633Z" fill="white"/>
<path d="M72.3234 43.0535L39.5062 27.6785C37.8759 26.9125 36.2529 26.0957 34.6008 25.3805C34.1294 25.1553 33.6021 25.0735 33.0844 25.1451C32.5667 25.2168 32.0816 25.4388 31.6895 25.7835C31.1327 26.2336 30.5978 26.702 30.0374 27.163L14.1128 40.4577C9.80414 44.0519 5.43726 47.5734 1.18319 51.251L0.96848 51.4289C-0.123241 52.3293 -0.319751 54.1445 0.520874 55.3752C0.702172 55.6626 0.942184 55.9085 1.22524 56.0971C1.50829 56.2856 1.82802 56.4124 2.16355 56.4693C2.49908 56.5262 2.84286 56.5118 3.17244 56.4271C3.50202 56.3424 3.80999 56.1894 4.07625 55.9779L33.8802 31.1057L65.6821 46.0051L70.3583 48.1833C70.6669 48.3263 71.0021 48.4029 71.3423 48.4083C71.6825 48.4136 72.02 48.3476 72.3329 48.2144C72.6458 48.0813 72.9272 47.884 73.1588 47.6353C73.3904 47.3867 73.567 47.0922 73.6771 46.7711C74.2011 45.4169 73.6007 43.6525 72.3234 43.0535Z" fill="#EBB044"/>
<path d="M38.267 57.1017L24.7717 58.6856L27.7813 84.2059L41.2766 82.622L38.267 57.1017Z" fill="#CCD2D9"/>
<path d="M216.744 126.274C211.198 125.73 204.16 128.565 202.413 133.266C200.826 128.507 192.358 125.45 186.798 125.806C172.121 126.746 166.881 142.963 172.904 154.033C176.146 159.99 180.862 165.229 186.026 169.952C190.349 173.909 201.529 182.328 201.565 182.296C201.598 182.325 213.064 174.309 217.522 170.486C222.843 165.944 227.737 160.869 231.183 155.027C237.585 144.176 231.376 127.719 216.744 126.274Z" fill="#D34E4E"/>
<path d="M214.273 149.567H205.182V140.495H198.963V149.567H189.873V155.768H198.963V164.84H205.182V155.768H214.273V149.567Z" fill="white"/>
<path d="M230.175 142.096L227.868 144.191L225.124 144.016L224.793 144.579L225.47 145.015L223.152 145.523L221.966 147.037L222.69 149.491L224.844 151.03L227.21 150.054L229.062 147.643L232.344 144.913L230.175 142.096Z" fill="#EFD1B9"/>
<path d="M227.966 143.341L239.189 134.628C240.194 133.844 241.34 133.248 242.341 132.45C243.796 131.292 244.197 130.947 243.702 129.269C242.272 124.408 239.237 120.077 237.854 115.278C239.433 114.352 240.852 113.226 242.552 112.471C245.332 111.237 245.969 113.241 247.097 115.281C248.44 117.699 249.71 120.161 250.885 122.666C251.861 124.739 256.708 133.444 253.96 135.514C251.988 137.002 230.408 148.351 230.627 148.798L227.966 143.341Z" fill="#CCD2D9"/>
<path d="M204.665 210.566L199.735 205.846H199.585L198.748 204.107L194.331 194.901C193.031 192.207 191.874 187.603 188.235 187.578L153.638 187.349C151.722 187.359 149.849 187.923 148.246 188.972C146.643 190.02 145.379 191.51 144.606 193.26L138.784 205.912H138.209L126.578 209.477C124.579 210.437 122.889 211.937 121.701 213.807C120.514 215.677 119.876 217.842 119.861 220.056L119.817 226.845L207.66 227.426L207.722 217.769C207.729 216.424 207.462 215.092 206.936 213.854C206.411 212.616 205.638 211.497 204.665 210.566Z" fill="#EBB044"/>
<path d="M170.92 204.667L194.003 204.819L188.846 191.906C188.732 191.593 188.526 191.322 188.256 191.128C187.985 190.934 187.662 190.825 187.329 190.816L171.011 190.711L170.92 204.667Z" fill="#CCD2D9"/>
<path d="M167.063 190.704L153.842 190.599C152.445 190.606 151.08 191.017 149.912 191.782C148.744 192.547 147.822 193.632 147.259 194.908L142.859 204.467L166.972 204.627L167.063 190.704Z" fill="#CCD2D9"/>
<path d="M189.458 195.024L190.375 195.521L188.967 191.989C188.848 191.68 188.641 191.414 188.37 191.223C188.098 191.033 187.777 190.928 187.445 190.922L181.794 190.885C184.341 192.279 186.907 193.641 189.458 195.024Z" fill="#FFFFED"/>
<path d="M189.887 198.103C185.666 195.786 181.226 193.162 177.049 190.769L171.746 190.816C175.36 193.949 179.931 196.745 183.974 199.261C186.401 200.764 188.872 202.216 191.419 203.516C192.253 203.948 193.126 204.34 193.999 204.736L191.783 199.145C191.143 198.792 190.517 198.448 189.887 198.103Z" fill="#FFFFED"/>
<path d="M162.849 199.014C161.073 197.856 159.235 196.781 157.39 195.747C155.545 194.712 153.617 193.648 151.648 192.777C151 192.494 150.345 192.225 149.69 191.956C148.64 192.72 147.806 193.74 147.266 194.919L147.223 195.013C149.21 196.415 151.226 197.801 153.18 199.217C156.091 201.312 159.319 202.902 162.474 204.608L166.979 204.637V202.096C165.607 201.08 164.294 199.961 162.849 199.014Z" fill="#FFFFED"/>
<path d="M153.071 227.07C153.152 226.672 153.194 226.267 153.198 225.861C153.224 221.802 149.359 218.491 144.563 218.459C142.796 218.437 141.057 218.894 139.53 219.78C142.403 220.433 145.049 221.841 147.194 223.857C148.2 224.777 149.059 225.846 149.741 227.026L153.071 227.07Z" fill="black"/>
<path d="M198.559 227.371C198.643 226.978 198.689 226.579 198.697 226.177C198.727 222.118 194.953 218.807 190.269 218.774C188.54 218.753 186.839 219.212 185.357 220.1C188.174 220.759 190.76 222.168 192.839 224.177C193.827 225.098 194.668 226.166 195.331 227.342L198.559 227.371Z" fill="black"/>
<path d="M148.179 231.596C151.195 228.588 151.195 223.71 148.179 220.701C145.164 217.693 140.274 217.693 137.259 220.701C134.243 223.71 134.243 228.587 137.259 231.596C140.274 234.605 145.164 234.605 148.179 231.596Z" fill="#393B41"/>
<path d="M142.885 230.512C145.306 230.43 147.201 228.406 147.12 225.991C147.038 223.577 145.009 221.686 142.589 221.767C140.168 221.849 138.272 223.873 138.354 226.288C138.436 228.702 140.465 230.593 142.885 230.512Z" fill="#FFFFED"/>
<path d="M143.464 229.201C144.312 229.17 145.121 228.838 145.745 228.264C145.609 228.646 145.383 228.988 145.086 229.264C144.789 229.54 144.43 229.74 144.039 229.847C143.486 229.973 142.917 230.005 142.354 229.942C141.966 229.881 141.598 229.732 141.277 229.507C140.956 229.283 140.691 228.988 140.501 228.646C140.621 228.867 141.48 229.03 141.695 229.07C142.276 229.19 142.871 229.234 143.464 229.201Z" fill="black"/>
<path d="M190.458 233.854C194.561 232.697 196.947 228.439 195.787 224.345C194.626 220.251 190.359 217.87 186.255 219.028C182.151 220.186 179.765 224.443 180.926 228.538C182.086 232.632 186.354 235.012 190.458 233.854Z" fill="#393B41"/>
<path d="M186.736 230.533C185.935 230.214 185.247 229.665 184.759 228.956C184.27 228.248 184.003 227.41 183.991 226.55C183.978 225.69 184.222 224.845 184.69 224.123C185.158 223.401 185.83 222.833 186.621 222.491C187.413 222.149 188.288 222.048 189.136 222.202C189.985 222.355 190.769 222.756 191.389 223.353C192.01 223.95 192.439 224.718 192.623 225.558C192.807 226.399 192.738 227.275 192.424 228.076C191.996 229.154 191.156 230.018 190.09 230.479C189.023 230.94 187.817 230.959 186.736 230.533Z" fill="#FFFFED"/>
<path d="M189.098 229.502C189.945 229.47 190.754 229.138 191.379 228.566C191.244 228.95 191.019 229.296 190.722 229.576C190.425 229.855 190.065 230.059 189.673 230.17C189.405 230.233 189.132 230.271 188.857 230.283C188.568 230.314 188.277 230.314 187.988 230.283C187.6 230.221 187.231 230.072 186.909 229.847C186.588 229.622 186.322 229.326 186.132 228.983C186.255 229.205 187.114 229.368 187.325 229.408C187.91 229.515 188.505 229.547 189.098 229.502Z" fill="black"/>
<path d="M164.334 208.559L161.423 208.54C161.067 208.537 160.777 208.823 160.774 209.178L160.771 209.694C160.768 210.049 161.055 210.338 161.411 210.341L164.322 210.36C164.678 210.362 164.968 210.076 164.97 209.721L164.974 209.206C164.976 208.851 164.689 208.561 164.334 208.559Z" fill="black"/>
<path d="M15.5648 83.1046L14.8515 78.287L16.9003 77.8913L18.1231 81.0824L19.0074 80.4471L19.1165 84.6475L17.0386 85.3446L15.5648 83.1046Z" fill="#C48270"/>
<path d="M46.5951 108.147L28.116 103.352L19.5569 83.2135L15.5066 84.8073L20.332 110.816L41.6169 121.754L46.5951 108.147Z" fill="#CCD2D9"/>
<path d="M29.9209 228.453L29.6735 230.867L34.2696 233.772L36.9334 231.604L34.7609 228.943L30.1647 226.039L29.9209 228.453Z" fill="#282E3A"/>
<path d="M29.7426 154.788L28.993 162.121L35.5578 194.897L29.7463 227.651L34.4479 229.096L49.6593 190.152L50.4926 178.244L48.4329 153.582L29.7426 154.788Z" fill="#7FC5A3"/>
<path d="M65.391 157.286L65.5402 188.268L59.4192 228.174L54.9214 228.141L52.3267 191.267L46.4168 154.367L65.391 157.286Z" fill="#7FC5A3"/>
<path d="M54.9323 230.036L59.7831 232.494L62.2322 230.083L59.8159 227.64L54.9505 227.607L54.9323 230.036Z" fill="#282E3A"/>
<path d="M69.1829 152.737C65.9368 142.706 65.5911 132.174 64.645 121.722C64.3647 118.639 64.07 115.488 62.7817 112.671C61.3043 109.436 58.8625 107.73 56.0167 106.797C52.3958 105.61 48.1236 105.679 44.3717 105.446C40.7981 105.337 37.6394 118.734 33.9931 125.229C31.7623 129.222 29.4588 132.729 27.9522 137.071C26.4966 141.239 25.1174 145.479 24.2767 149.814C23.0067 156.349 19.7606 160.931 22.8611 163.16C23.145 163.254 23.4179 163.345 23.6799 163.439C28.7656 165.281 34.033 166.578 39.3934 167.309C44.1552 167.947 48.9745 168.037 53.7569 167.578C60.3072 166.935 66.6282 166.017 72.3925 162.615L69.1829 152.737Z" fill="#CCD2D9"/>
<path d="M42.6104 95.4808C44.6446 89.349 53.6113 87.2143 55.711 94.3408C56.3369 96.4792 56.7154 98.7518 56.286 100.941C55.8566 103.13 54.521 105.232 52.4723 106.129H52.4395L52.6797 107.832C52.7095 107.953 52.6966 108.081 52.6433 108.195C52.5968 108.245 52.5407 108.286 52.4782 108.315C52.4157 108.343 52.3481 108.359 52.2794 108.362L50.2415 108.667C49.9074 108.743 49.5603 108.743 49.2262 108.667C48.5166 108.438 48.2218 107.577 48.1891 106.851C48.1891 106.673 48.1891 106.488 48.1891 106.314C44.1388 104.938 41.2785 99.4743 42.6104 95.4808Z" fill="#C48270"/>
<path d="M53.5349 85.0106C55.1761 84.7637 56.5735 86.3539 58.0873 87.1889C59.3501 87.8823 60.7766 88.0638 62.0903 88.641C63.404 89.2183 64.6813 90.4163 64.7104 91.9084C66.0314 91.2187 67.4652 90.5143 68.95 90.8011C70.4347 91.088 71.8103 92.8523 71.2207 94.3082C70.6894 95.6115 68.9864 95.9201 68.4187 97.2125C67.5198 99.2419 69.9471 102.393 68.2913 103.747C67.891 104.074 67.3488 104.15 66.9594 104.473C66.4718 104.887 66.3189 105.599 66.1006 106.231C65.1217 109.095 62.225 110.968 59.3647 110.587C58.4557 110.13 57.6483 109.494 56.9906 108.719C56.3329 107.944 55.8384 107.044 55.5364 106.074C54.7685 103.704 56.0385 102.88 56.2642 100.654C56.4878 98.1743 55.7449 95.7038 54.1899 93.7563C53.1928 92.5256 51.7626 91.4692 50.2561 91.3239C49.6411 91.2658 49.8339 91.7777 49.1425 91.3022C48.7715 90.9294 48.5022 90.4683 48.3601 89.9625C49.994 88.6483 51.3733 85.3155 53.5349 85.0106Z" fill="#3B455A"/>
<path d="M35.7762 88.1618C34.9283 88.3942 34.0076 88.3615 33.2034 88.7136C31.9916 89.2437 32.0643 90.4998 31.7223 91.589C31.3584 92.7979 30.787 94.4171 29.9901 95.3537C29.4151 96.0326 28.6109 96.4174 27.9085 96.9402C27.2062 97.463 26.5693 98.2327 26.5693 99.173C26.5693 100.113 27.1843 100.865 27.2717 101.754C27.3809 103.083 27.148 103.762 27.5592 105.12C27.7702 105.82 28.0068 106.572 28.5344 107.037C29.2295 107.668 30.2193 107.654 31.0818 107.512C31.9443 107.371 32.8467 107.124 33.7056 107.414C35.5615 108.035 35.2121 109.908 35.7071 111.48C36.4603 113.869 39.237 115.263 41.3622 114.414C43.1817 113.687 44.2043 111.607 44.1242 109.545C44.0842 108.514 43.673 107.556 43.6439 106.521C43.6148 105.486 44.1752 104.147 43.28 103.359C43.0353 103.202 42.8007 103.03 42.5776 102.843C42.4242 102.655 42.3193 102.432 42.2719 102.193C42.1768 101.79 42.1702 101.371 42.2525 100.965C42.3348 100.559 42.504 100.176 42.7487 99.841C43.1126 99.3908 43.6002 99.0568 43.8149 98.5122C44.0587 97.8878 43.8658 97.1544 43.8149 96.461C43.7166 94.791 44.6301 93.15 46.0275 92.5038C46.9481 92.0791 47.7779 91.8286 48.5748 91.1823C48.6949 91.0843 50.5254 89.4688 50.5727 89.8173C50.4464 89.2187 50.1725 88.6609 49.7757 88.1945C49.2296 87.3741 48.5213 86.6736 47.6942 86.136C45.0012 84.5858 44.8739 88.1872 42.7123 87.7153C42.1882 87.5991 41.7952 87.1235 41.3258 86.8367C40.4415 86.2994 39.3534 86.4918 38.4436 86.8948C37.5339 87.2978 36.7296 87.8968 35.7762 88.1618Z" fill="#3B455A"/>
</svg>
