<svg width="319" height="223" viewBox="0 0 319 223" fill="none" xmlns="http://www.w3.org/2000/svg">
<g clip-path="url(#clip0_560_386)">
<g style="mix-blend-mode:multiply" opacity="0.12">
<path d="M314.366 206.13C290.308 192.95 206.093 200.859 206.093 200.859C200.082 201.666 194.901 202.463 190.467 203.252C190.467 203.252 166.093 207.119 154.365 205.472C144.979 204.153 119.224 202.412 105.612 205.822C101.071 204.75 94.7869 203.646 86.4059 202.521C86.4059 202.521 21.9507 196.468 3.53673 206.556C-14.8772 216.644 43.5901 218.662 60.3926 219.419C68.4296 219.779 91.0505 218.122 104.663 215.247C115.273 217.265 134.618 216.955 145.043 215.686C161.279 213.709 169.432 215.792 187.75 218.538C205.605 221.638 230.598 223.361 240.075 222.934C262.038 221.941 338.426 219.31 314.366 206.13Z" fill="#606060"/>
</g>
<path d="M193.945 61.7399L176.836 74.5973L162.358 77.2228V82.4712L183.596 80.7839L203.158 70.6604L199.472 59.7475L193.945 61.7399Z" fill="#94BAAB"/>
<path d="M199.961 203.109L200.216 205.628L195.632 208.768L192.958 206.561L195.121 203.729L199.705 200.589L199.961 203.109Z" fill="#514943"/>
<path d="M199.847 126.077L200.623 133.729L193.75 160.019L200.133 202.264L195.435 203.88L183.044 162.637L181.079 150.637L181.149 125.238L199.847 126.077Z" fill="#CAB5A1"/>
<path d="M163.709 134.605L173.593 205.394H178.086L178.893 160.019L187.069 128.171L163.709 134.605Z" fill="#CAB5A1"/>
<path d="M178.061 204.834V207.376L173.201 209.918L170.772 207.376L173.201 204.834H178.061Z" fill="#514943"/>
<path d="M202.976 123.581C206.604 98.4131 213.231 81.2883 214.499 76.4182C214.874 75.003 214.947 73.5249 214.713 72.0798C214.479 70.6347 213.942 69.2548 213.138 68.0299C211.752 67.2531 210.747 65.9088 209.361 65.0791C199.978 59.47 192.095 65.5305 185.766 72.7209C177.968 81.592 170.811 91.0026 164.347 100.882C158.673 109.543 152.963 118.284 148.804 127.798C147.086 131.722 145.515 135.46 149.436 138.602C155.69 143.608 163.712 145.959 170.954 149.144C179.275 152.804 187.694 156.183 196.28 159.164C200.762 160.728 199.343 148.758 202.976 123.581Z" fill="#8AAD9F"/>
<path d="M211.322 44.1082C211.322 44.1082 213.773 45.9871 212.865 53.2002C211.956 60.4133 212.774 65.1068 212.774 65.1068C212.774 65.1068 210.33 66.3048 208.496 65.2354C206.662 64.1661 205.979 63.9744 206.568 61.0261C207.158 58.0779 208.086 44.1284 208.086 44.1284L211.322 44.1082Z" fill="#9E6652"/>
<path d="M205.463 46.7135C206.841 47.0708 208.085 47.823 209.039 48.8773C209.994 49.9315 210.618 51.2415 210.833 52.6454C211.563 51.924 212.109 51.0388 212.424 50.0639C212.74 49.0891 212.817 48.0529 212.648 47.0424C212.479 46.0318 212.07 45.0763 211.455 44.256C210.839 43.4357 210.035 42.7744 209.111 42.3276C207.426 43.2967 206.19 44.8859 205.668 46.7538L205.463 46.7135Z" fill="#9E6652"/>
<path d="M211.134 50.204C209.498 42.7993 200.219 44.3654 197.727 50.4764C196.31 53.9518 196.869 60.6453 201.18 61.639C201.266 62.2947 201.39 63.528 201.906 63.9542C202.468 64.4158 204.183 63.9088 204.846 63.7323C205.034 63.6965 205.209 63.6092 205.351 63.4801C205.516 63.3035 205.531 62.8471 205.518 62.3426C206.037 62.2922 206.547 62.177 207.036 61.9996C209.182 61.2229 210.692 59.1724 211.274 56.9682C211.855 54.7639 211.628 52.4285 211.134 50.204Z" fill="#EACDB0"/>
<path d="M208.931 42.3125C208.931 42.3125 209.943 46.3251 204.81 47.6088C199.677 48.8925 196.427 53.0262 197.449 57.2632C198.471 61.5003 202.392 64.5267 200.401 65.7096C198.41 66.8924 190.947 65.9921 190.947 65.9921C190.947 65.9921 185.991 51.0943 191.87 44.4033C197.75 37.7123 206.523 37.2205 208.931 42.3125Z" fill="#9E6652"/>
<path d="M184.878 21.2634H41.4167V212.127H184.878V21.2634Z" fill="#755635"/>
<path opacity="0.26" d="M52.1201 203.928H54.2679L180.957 207.848L177.643 27.3441L171.754 29.0314L52.1201 203.928Z" fill="black"/>
<path d="M177.643 27.3416H48.6519V203.928H177.643V27.3416Z" fill="#FFFFF1"/>
<path d="M129.677 10.5498H128.806V9.96716C128.806 4.46151 123.666 0 117.324 0H108.976C102.634 0 97.4933 4.46151 97.4933 9.96716V10.5498H96.6231C90.2836 10.5498 85.1406 15.0138 85.1406 20.5169V31.6518H141.159V20.5169C141.159 15.0138 136.016 10.5498 129.677 10.5498ZM120.527 10.7793H105.768C105.408 10.7793 105.051 10.7085 104.719 10.5712C104.386 10.4338 104.084 10.2324 103.829 9.97851C103.574 9.72465 103.372 9.42327 103.235 9.09157C103.097 8.75988 103.026 8.40437 103.026 8.04535C103.026 7.68633 103.097 7.33082 103.235 6.99913C103.372 6.66744 103.574 6.36605 103.829 6.11219C104.084 5.85832 104.386 5.65694 104.719 5.51955C105.051 5.38216 105.408 5.31144 105.768 5.31144H120.527C120.887 5.31144 121.243 5.38216 121.576 5.51955C121.909 5.65694 122.211 5.85832 122.466 6.11219C122.72 6.36605 122.922 6.66744 123.06 6.99913C123.198 7.33082 123.269 7.68633 123.269 8.04535C123.269 8.40437 123.198 8.75988 123.06 9.09157C122.922 9.42327 122.72 9.72465 122.466 9.97851C122.211 10.2324 121.909 10.4338 121.576 10.5712C121.243 10.7085 120.887 10.7793 120.527 10.7793Z" fill="#C4D3D3"/>
<path opacity="0.12" d="M141.157 26.4109H85.1357V31.6543H141.157V26.4109Z" fill="black"/>
<path d="M161.64 100.706H64.7056V103.306H161.64V100.706Z" fill="#CDCED0"/>
<path d="M161.64 119.871H64.7056V122.471H161.64V119.871Z" fill="#CDCED0"/>
<path d="M161.64 139.036H64.7056V141.636H161.64V139.036Z" fill="#CDCED0"/>
<path d="M161.64 158.201H64.7056V160.801H161.64V158.201Z" fill="#CDCED0"/>
<path d="M101.012 188.236H65.3784V189.154H101.012V188.236Z" fill="#CDCED0"/>
<path d="M151.109 171.926C150.263 171.618 149.362 171.489 148.463 171.545C147.564 171.602 146.687 171.844 145.887 172.256C145.648 172.128 145.4 172.016 145.146 171.921C144.207 171.575 143.2 171.45 142.204 171.557C141.209 171.664 140.251 171.998 139.407 172.535C138.563 173.072 137.855 173.797 137.338 174.652C136.822 175.507 136.511 176.47 136.43 177.465C136.349 178.46 136.5 179.46 136.871 180.388C137.242 181.315 137.824 182.144 138.57 182.809C139.316 183.475 140.207 183.96 141.172 184.225C142.137 184.491 143.151 184.53 144.134 184.339C144.752 184.227 145.35 184.02 145.905 183.727C147.195 184.384 148.666 184.599 150.092 184.339C153.158 183.78 155.295 181.041 155.356 177.989C155.342 176.67 154.929 175.385 154.171 174.303C153.414 173.222 152.346 172.393 151.109 171.926ZM144.756 183.101C143.968 183.385 143.125 183.484 142.292 183.389C141.459 183.295 140.66 183.01 139.956 182.556C139.252 182.102 138.663 181.492 138.234 180.774C137.806 180.056 137.55 179.249 137.486 178.415C137.423 177.582 137.553 176.746 137.868 175.971C138.182 175.196 138.672 174.505 139.299 173.95C139.926 173.396 140.673 172.993 141.482 172.774C142.291 172.555 143.14 172.525 143.962 172.688C144.261 172.746 144.554 172.83 144.837 172.94C144.463 173.237 144.124 173.575 143.826 173.949C143.001 174.978 142.509 176.233 142.413 177.547C142.318 178.861 142.623 180.173 143.289 181.31C143.694 181.99 144.223 182.589 144.848 183.076L144.756 183.101ZM148.339 178.004C148.328 178.901 148.099 179.783 147.673 180.574C147.247 181.364 146.635 182.04 145.89 182.544C145.448 182.259 145.05 181.912 144.708 181.512C143.988 180.647 143.553 179.581 143.462 178.46C143.372 177.338 143.63 176.217 144.202 175.247C144.625 174.537 145.206 173.933 145.9 173.482C146.639 173.985 147.245 174.657 147.67 175.442C148.094 176.227 148.323 177.102 148.339 177.994V178.004ZM150.719 183.101C149.493 183.535 148.153 183.52 146.937 183.058C147.703 182.456 148.321 181.688 148.746 180.813C149.172 179.938 149.393 178.978 149.393 178.005C149.393 177.033 149.172 176.073 148.746 175.198C148.321 174.323 147.703 173.555 146.937 172.952C147.888 172.582 148.926 172.49 149.927 172.688C151.091 172.919 152.147 173.525 152.934 174.411C153.721 175.297 154.195 176.415 154.285 177.595C154.374 178.775 154.074 179.952 153.431 180.946C152.787 181.94 151.835 182.697 150.719 183.101Z" fill="#CDCED0"/>
<path d="M253.348 24.4967C253.348 24.4967 255.65 24.7187 256.999 26.4009C258.347 28.0831 262.61 35.6997 262.564 41.6114C262.519 47.5231 263.434 54.8723 251.701 59.9971C245.86 61.8962 245.729 56.6781 241.056 56.3603C236.384 56.0426 232.341 57.6718 232.989 50.4411C233.636 43.2104 238.215 41.566 240.758 33.4828C243.3 25.3996 247.297 22.1184 253.348 24.4967Z" fill="#C2969C"/>
<path d="M255.035 24.9608L265.428 28.4664L273.275 29.6039L273.158 32.996L265.501 34.0654L257.272 32.4513L255.035 24.9608Z" fill="#C2969C"/>
<path d="M245.331 24.0453L237.752 26.7842L231.39 24.5421L230.403 26.6657L236.401 31.0011L242.404 31.4071L245.331 24.0453Z" fill="#C2969C"/>
<path d="M247.259 9.48292C247.259 9.48292 242.513 12.6002 242.943 17.3013C242.943 17.3013 239.834 14.8145 241.172 11.3492C242.511 7.88394 243.394 6.51951 246.685 7.25091C249.976 7.9823 247.259 9.48292 247.259 9.48292Z" fill="#754C3D"/>
<path d="M242.994 14.6884C243.571 7.66957 252.303 7.95204 255.362 13.2635C257.102 16.2899 257.431 22.5093 253.591 23.962C253.591 24.5774 253.637 25.7275 253.214 26.184C252.756 26.6884 251.119 26.4362 250.482 26.3479C250.301 26.3405 250.126 26.2829 249.976 26.1814C249.804 26.0427 249.723 25.6241 249.68 25.1575C249.199 25.1759 248.718 25.1327 248.248 25.0289C246.176 24.585 244.529 22.8851 243.717 20.933C242.905 18.981 242.819 16.7969 242.994 14.6884Z" fill="#EACDB0"/>
<path d="M246.143 11.3316C248.587 13.8889 252.468 14.0529 254.798 16.5371C254.798 16.5371 256.315 18.1638 255.931 22.0352C255.931 22.0352 259.999 22.2067 261.782 18.1664C263.566 14.126 259.46 6.15885 259.46 6.15885C259.46 6.15885 254.653 2.66833 248.329 4.14121C246.186 4.64562 244.256 6.25217 244.724 8.68091C244.927 9.68393 245.42 10.6056 246.143 11.3316Z" fill="#754C3D"/>
<path d="M255.121 25.049C255.121 25.049 255.6 28.5976 253.715 28.9986C251.83 29.3996 247.482 28.6102 246.733 27.9595C245.696 27.0566 246.733 24.4463 246.733 24.4463L245.334 24.0453C245.334 24.0453 238.863 37.2154 244.069 39.1952C249.275 41.1751 255.878 41.7324 256.971 37.571C258.064 33.4096 256.508 25.6165 256.508 25.6165L255.121 25.049Z" fill="#F2D263"/>
<path d="M273.262 29.9696L277.102 29.0692L277.274 29.8737L274.659 32.1158L275.311 32.537L274.831 32.9204L273.174 32.4967L273.262 29.9696Z" fill="#EACDB0"/>
<path d="M231.299 24.817L230.31 23.5963L228.367 23.73L227.846 25.2458L228.731 26.7413L230.411 26.5597L231.299 24.817Z" fill="#EACDB0"/>
<path d="M215.898 112.572L214.939 153.374L222.027 206.08L227.957 206.15L232.283 157.646L240.975 109.192L215.898 112.572Z" fill="#8C9498"/>
<path d="M227.932 205.446L227.894 208.642L221.443 211.764L218.273 208.528L221.519 205.368L227.932 205.446Z" fill="#3A3029"/>
<path d="M248.114 206.985L243.014 211.308L244.289 213.85L253.725 211.815V206.985H248.114Z" fill="#3A3029"/>
<path d="M236.467 128.622L240.705 168.171L246.298 207.59L254.277 207.212L253.986 166.317L258.787 128.388L247.51 123.152L236.467 128.622Z" fill="#8C9498"/>
<path d="M231.762 55.9165C231.762 55.9165 221.911 62.4107 215.653 83.48C209.275 104.917 210.221 133.293 210.221 133.293C210.221 133.293 266.255 142.748 265.096 133.442C265.096 133.442 266.948 58.2847 242.076 56.4436C240.947 56.3578 232.374 55.4473 231.762 55.9165Z" fill="#A1BDCC"/>
<path d="M234.142 58.0249C229.915 68.2997 226.748 77.992 222.404 88.2189C219.832 94.2719 219.804 100.61 219.437 107.066C219.071 113.482 218.706 119.899 218.342 126.317L217.879 134.453L241.299 136.902C239.948 129.129 238.407 121.386 237.203 113.591C236.09 106.398 234.388 98.3223 235.713 91.0739C236.361 87.543 237.059 84.0121 237.722 80.4813C238.939 74.0071 239.493 67.3817 240.758 60.9177C240.849 60.4662 239.844 57.9417 239.7 57.4902L234.142 58.0249Z" fill="white"/>
<path d="M240.715 57.5911V58.8067L247.1 73.7524L249.923 72.8218L248.268 58.2746L243.867 55.7878C243.548 55.6071 243.187 55.5124 242.82 55.5132C242.453 55.5139 242.092 55.6101 241.774 55.7922C241.456 55.9743 241.191 56.236 241.005 56.5515C240.819 56.8669 240.719 57.2253 240.715 57.5911Z" fill="#EACDB0"/>
<path d="M246.715 73.5809L245.19 76.3173L246.381 77.0059L250.11 74.5267L249.862 72.5444L246.715 73.5809Z" fill="#3A3029"/>
<path d="M228.554 52.8648L227.82 53.8358L224.061 69.6415L226.887 70.562L234.223 57.8761L232.167 53.2759C232.017 52.9413 231.783 52.6515 231.487 52.4349C231.191 52.2183 230.843 52.0825 230.478 52.041C230.113 51.9995 229.744 52.0536 229.406 52.1981C229.069 52.3426 228.775 52.5724 228.554 52.8648Z" fill="#E0C5A9"/>
<path d="M223.864 69.5481L221.008 70.847L221.557 72.1055L226.034 72.3174L227.016 70.5746L223.864 69.5481Z" fill="#3A3029"/>
<path d="M234.254 58.4158L239.728 57.5381C239.657 56.0694 239.468 54.6088 239.164 53.1699C240.661 52.5394 242.379 51.6264 242.549 50.0149C242.575 49.5038 242.514 48.9919 242.367 48.5016L240.909 42.3402C240.74 41.629 240.563 40.9002 240.133 40.3075C239.374 39.2709 238.018 38.88 236.743 38.7362C233.485 38.3756 230.014 39.2835 227.636 41.5408C226.978 42.1178 226.483 42.8571 226.201 43.6845C225.825 44.9733 226.25 46.3427 226.669 47.6164L227.831 51.1473C228.276 52.4991 228.896 54.03 230.254 54.4638C230.978 54.6958 231.805 54.5646 232.468 54.9329C233.631 55.5785 233.583 57.2506 234.254 58.4158Z" fill="#EACDB0"/>
<path d="M215.007 38.7816C214.904 37.3835 214.968 35.9781 215.197 34.595C215.549 32.3252 218.124 31.1675 220.398 30.8699C225.311 30.2218 229.933 27.6972 234.856 29.1196C237.671 29.9343 241.385 29.9393 243.963 31.1726C245.03 31.7197 245.947 32.5178 246.634 33.4979C247.841 35.1818 248.55 37.169 248.681 39.2343C248.813 41.2995 248.361 43.3602 247.378 45.1826C246.915 45.9844 246.381 46.744 245.784 47.4524C244.57 48.9379 243.12 50.7689 241.365 51.3969C241.226 49.8055 242.377 44.6883 241.066 43.455C238.992 41.5004 234.628 42.489 232.24 43.1473C229.637 43.8636 227.398 45.8686 224.808 46.426C222.943 46.827 220.484 46.0527 218.825 45.1801C216.224 43.8131 215.232 41.3617 215.007 38.7816Z" fill="#3A3029"/>
<path d="M248.162 58.2897L277.257 76.219L271.173 85.9768L253.189 77.538L248.162 58.2897Z" fill="#A1BDCC"/>
<path d="M257.502 50.7689L277.3 76.224L271.175 86.0399L264.297 82.8116L253.087 53.9593L257.502 50.7689Z" fill="#AECCDC"/>
<path d="M256.629 51.3995L253.98 48.0048L247.633 46.9506L246.576 49.5861L249.748 52.2242L253.765 53.4675L256.629 51.3995Z" fill="#EACDB0"/>
<path d="M213.95 75.079L189.47 93.2277L161.885 88.6804L162.042 83.1269L185.637 83.5229L204.269 67.5936L213.257 68.0954L213.95 75.079Z" fill="#94BAAB"/>
<path d="M162.08 84.0172L155.87 83.8482L152.864 86.9024L153.709 88.5644L157.223 89.2151L161.928 87.8885L162.08 84.0172Z" fill="#EACDB0"/>
<path d="M217.173 180.869V210.085H212.751L209.986 192.445L207.497 178.94L217.173 180.869Z" fill="#2E4661"/>
<path d="M207.497 177.838L205.837 190.516L203.626 210.909L199.204 210.634V194.924L196.993 178.94L207.497 177.838Z" fill="#2E4661"/>
<path d="M209.571 135.255C209.571 135.255 214.269 134.425 216.204 141.596C218.139 148.766 223.393 169.706 223.669 180.73C223.945 191.754 216.758 184.589 208.187 185.969C199.616 187.348 192.569 187.482 192.569 182.524C192.569 177.565 189.528 135.394 209.571 135.255Z" fill="#B26650"/>
<path d="M209.766 120.511C204.936 114.234 196.864 119.8 197.213 126.673C197.413 130.582 200.907 136.663 205.422 135.702C205.794 136.284 206.457 137.396 207.135 137.57C207.868 137.76 209.26 136.529 209.814 136.057C209.979 135.941 210.109 135.781 210.188 135.596C210.267 135.359 210.079 134.922 209.844 134.451C210.305 134.173 210.729 133.84 211.109 133.46C212.791 131.78 213.31 129.172 212.88 126.839C212.45 124.506 211.215 122.398 209.766 120.511Z" fill="#EACDB0"/>
<path d="M204.107 119.49C204.107 119.49 198.119 121.898 198.478 124.476C199.019 128.35 199.126 130.985 199.705 133.253L194.949 131.27L191.357 124.413C191.357 124.413 191.046 118.415 194.003 116.953C196.96 115.49 203.279 113.563 203.279 113.563L208.405 114.428L211.989 113.671L212.242 124.668C212.242 124.668 209.576 117.154 204.107 119.49Z" fill="#5C3C30"/>
<path d="M217.173 210.085L219.662 212.564L218.554 214.218L213.578 212.564V210.085H217.173Z" fill="#8C9498"/>
<path d="M202.89 210.864L201.969 214.493L198.928 215.595L197.269 214.768L199.844 210.675L202.89 210.864Z" fill="#8C9498"/>
<path d="M205.951 135.825L201.172 136.884L191.878 150.65L186.568 164.68L190.284 165.739L196.922 153.563L205.951 135.825Z" fill="#B26650"/>
<path d="M187.094 164.829L186.834 168.385L188.427 168.915L189.224 166.799L189.756 167.328L190.016 165.664L187.094 164.829Z" fill="#EACDB0"/>
<path d="M213.257 136.443L221.858 144.766L227.929 137.956L230.206 141.487L221.605 154.097L213.51 148.549L213.257 136.443Z" fill="#B26650"/>
<path d="M226.917 139.722L226.158 136.191L227.937 135.227L230.489 136.695L230.206 137.515L228.941 137.452L228.435 137.2L226.917 139.722Z" fill="#EACDB0"/>
<path d="M161.564 43.9745H64.6296V46.5748H161.564V43.9745Z" fill="#CDCED0"/>
<path d="M161.564 63.1396H64.6296V65.7399H161.564V63.1396Z" fill="#CDCED0"/>
<path d="M161.564 82.3047H64.6296V84.9049H161.564V82.3047Z" fill="#CDCED0"/>
<path d="M298.074 151.013C278.744 145.283 274.38 132.478 273.849 130.65C273.849 130.65 273.889 130.519 273.819 130.541C273.798 130.468 273.71 130.574 273.71 130.574C271.876 131.109 258.698 134.309 243.477 121.122C243.477 121.122 223.745 150.657 226.862 168.811C230.181 188.203 237.011 197.255 237.077 197.245C237.102 197.305 248.461 198.314 266.624 190.582C283.611 183.353 298.074 151.013 298.074 151.013Z" fill="#006362"/>
<g opacity="0.4">
<path d="M293.791 152.816C276.285 147.553 272.25 136.072 271.757 134.433C271.757 134.433 271.792 134.315 271.729 134.335C271.709 134.269 271.63 134.362 271.63 134.362C269.979 134.826 258.096 137.596 244.246 125.692C244.246 125.692 226.644 151.961 229.574 168.218C232.736 185.583 238.554 194.463 238.602 194.45C238.627 194.506 249.313 194.756 265.67 187.971C280.96 181.626 293.791 152.816 293.791 152.816Z" fill="#006362"/>
</g>
<g opacity="0.06">
<path d="M270.125 137.079C270.125 137.079 270.209 136.983 270.229 137.048C270.297 137.028 270.259 137.152 270.259 137.152C270.765 138.837 274.841 150.428 292.283 156.067C293.756 153.215 294.575 151.371 294.575 151.371C277.069 146.108 273.037 134.627 272.544 132.988C272.544 132.988 272.579 132.872 272.513 132.89C272.496 132.826 272.417 132.917 272.417 132.917C270.763 133.384 258.881 136.151 245.033 124.246C245.033 124.246 243.91 125.924 242.281 128.688C256.424 140.352 268.43 137.555 270.125 137.079Z" fill="#006362"/>
</g>
<path d="M284.919 157.939C271.668 154.009 267.421 144.176 267.057 142.922C267.057 142.922 267.084 142.834 267.036 142.849C267.036 142.799 266.961 142.869 266.961 142.869C265.696 143.238 255.187 144.968 244.752 135.926C244.752 135.926 232.713 156.64 234.843 169.086C237.12 182.38 241.802 188.587 241.845 188.579C241.863 188.622 249.655 189.313 262.103 184.012C273.75 179.051 284.919 157.939 284.919 157.939Z" fill="#81BAAB"/>
</g>
<defs>
<clipPath id="clip0_560_386">
<rect width="319" height="223" fill="white"/>
</clipPath>
</defs>
</svg>
