<svg width="321" height="230" viewBox="0 0 321 230" fill="none" xmlns="http://www.w3.org/2000/svg">
<path d="M306.002 175.963H45.0259C36.7721 175.963 30.0172 180.052 30.0172 185.074C30.0172 188.545 33.2573 191.579 37.9908 193.117H15.0086C6.75483 193.117 0 197.207 0 202.229C0 207.243 6.75483 211.343 15.0086 211.343H23.0176C20.7787 212.933 19.4239 214.997 19.4239 217.24V220.886C19.4239 225.899 26.176 230 34.4325 230H291.513C299.767 230 306.522 225.91 306.522 220.886V217.24C306.522 212.229 299.767 208.126 291.513 208.126L274.032 208.33C275.843 208.252 277.579 207.582 278.975 206.422C281.518 204.175 281.633 200.751 280.389 197.918C279.573 196.083 278.289 194.628 275.09 194.08L305.991 194.202C314.245 194.202 321 190.113 321 185.088C321.011 180.063 314.256 175.963 306.002 175.963Z" fill="#E7E7E7"/>
<path d="M231.237 62.053L213.554 75.4124L198.591 78.1388V83.5916L220.54 81.8413L240.758 71.3228L236.95 59.9809L231.237 62.053Z" fill="#94BAAB"/>
<path d="M255.236 211.548L250.5 214.811L247.733 212.516L249.972 209.576L254.709 206.31L255.236 211.548Z" fill="#514943"/>
<path d="M254.855 128.896L255.658 136.847L248.552 164.16L255.149 208.052L250.293 209.732L237.488 166.881L235.456 154.416L235.529 128.024L254.855 128.896Z" fill="#CAB5A1"/>
<path d="M217.507 137.757L227.719 211.302H232.363L233.198 164.16L241.648 131.072L217.507 137.757Z" fill="#CAB5A1"/>
<path d="M232.336 210.722V213.363L227.316 216.005L224.806 213.363L227.316 210.722H232.336Z" fill="#514943"/>
<path d="M254.597 120.06C250.633 93.9438 252.048 74.9244 251.844 69.7033C251.791 68.1831 251.419 66.6912 250.753 65.3244C250.087 63.9575 249.142 62.7463 247.978 61.7694C246.373 61.4122 244.986 60.3762 243.353 59.9672C232.39 57.2027 226.411 65.5918 222.305 74.6408C217.255 85.7971 212.998 97.2976 209.568 109.056C206.554 119.37 203.534 129.777 202.269 140.484C201.747 144.909 201.312 149.096 206.138 151.043C213.826 154.148 222.461 154.08 230.589 155.075C239.918 156.221 249.259 157.055 258.65 157.447C263.553 157.655 258.563 146.174 254.597 120.06Z" fill="#8AAD9F"/>
<path d="M233.922 20.1752C200.664 20.8432 187.37 2.80799 185.615 0.185178C185.615 0.185178 185.615 -0.0411143 185.512 0.0297724C185.444 -0.0765577 185.357 0.136103 185.357 0.136103C182.745 1.90009 163.645 13.5773 133.092 0.389659C133.092 0.389659 116.951 56.9573 130.962 84.0905C145.924 113.056 161.213 123.926 161.308 123.877C161.381 123.959 179.744 119.845 204.391 98.5051C227.453 78.5205 233.922 20.1752 233.922 20.1752Z" fill="#016362"/>
<path d="M228.097 25.1864C197.941 25.6635 185.827 9.54223 184.228 7.21115C184.228 7.21115 184.228 7.00939 184.135 7.0721C184.073 6.9794 183.994 7.1648 183.994 7.1648C181.632 8.7243 164.349 19.0847 136.601 7.22478C136.601 7.22478 122.147 57.568 134.939 81.7731C148.604 107.628 162.217 118.73 162.304 118.686C162.369 118.76 179.29 113.778 201.57 94.8544C222.417 77.1573 228.097 25.1864 228.097 25.1864Z" fill="#016362"/>
<path d="M182.995 12.2114C182.995 12.2114 183.08 12.0151 183.142 12.1132C183.24 12.0478 183.243 12.2605 183.243 12.2605C184.875 14.6652 197.117 30.9337 227.368 31.0918C228.247 25.8462 228.611 22.5254 228.611 22.5254C198.453 23.0025 186.35 6.89216 184.742 4.55017C184.742 4.55017 184.742 4.34841 184.649 4.41112C184.587 4.31569 184.508 4.50382 184.508 4.50382C182.146 6.06878 164.858 16.4073 137.11 4.5638C137.11 4.5638 136.187 7.77279 135.015 12.9612C163.109 24.2649 180.569 13.8172 182.995 12.2114Z" fill="#016362"/>
<path d="M216.734 37.7333C193.931 38.1832 182.315 24.7829 181.113 22.9834C181.113 22.9834 181.113 22.828 181.042 22.8771C180.996 22.8062 180.936 22.9507 180.936 22.9507C179.143 24.1585 163.498 32.1715 142.551 23.1389C142.551 23.1389 134.047 61.9057 143.639 80.4999C153.9 100.359 164.379 107.81 164.445 107.778C164.494 107.835 177.084 105.013 193.98 90.3831C209.794 76.6965 216.734 37.7333 216.734 37.7333Z" fill="#94BAAB"/>
<path d="M207.452 135.882L221.715 129.395L230.965 119.58L233.957 122.852L226.34 134.576L214.694 143.589L207.452 135.882Z" fill="#B26650"/>
<path d="M195.964 143.573L188.354 130.513L187.623 114.716L191.973 114.515L194.568 129.406L201.652 135.355L195.964 143.573Z" fill="#B26650"/>
<path d="M194.296 182.16V212.543H198.872L201.731 194.199L204.307 180.153L194.296 182.16Z" fill="#2E4661"/>
<path d="M204.307 179.008L206.021 192.193L208.309 213.404L212.885 213.115V196.779L215.175 180.153L204.307 179.008Z" fill="#2E4661"/>
<path d="M202.161 134.723C202.161 134.723 197.299 133.864 195.297 141.315C193.295 148.767 187.862 170.553 187.574 182.018C187.285 193.482 194.726 186.031 203.592 187.471C212.458 188.91 219.751 189.049 219.751 183.888C219.751 178.727 222.896 134.867 202.161 134.723Z" fill="#B26650"/>
<path d="M199.37 119.91C203.42 112.753 212.493 117.334 213.113 124.463C213.467 128.517 210.76 135.279 205.994 134.938C205.697 135.592 205.178 136.83 204.506 137.119C203.782 137.416 202.18 136.348 201.546 135.952C201.36 135.857 201.205 135.711 201.097 135.533C200.983 135.298 201.113 134.821 201.287 134.3C200.771 134.083 200.284 133.802 199.837 133.463C197.873 131.975 196.97 129.374 197.071 126.898C197.171 124.422 198.153 122.061 199.37 119.91Z" fill="#EACDB0"/>
<path d="M205.023 118.053C205.023 118.053 211.503 119.689 211.503 122.383C211.503 126.451 211.775 129.18 211.503 131.598L216.092 128.872L218.791 121.295C218.791 121.295 218.247 115.071 215.012 113.988C211.777 112.906 205.023 111.824 205.023 111.824L199.892 113.459L196.113 113.187L197.419 124.551C197.419 124.551 199.081 116.418 205.023 118.053Z" fill="#754C3D"/>
<path d="M194.296 212.543L191.722 215.122L192.865 216.842L198.015 215.122V212.543H194.296Z" fill="#8C9498"/>
<path d="M209.073 213.355L210.025 217.129L213.173 218.276L214.887 217.418L212.224 213.159L209.073 213.355Z" fill="#8C9498"/>
<path d="M230.965 119.58L231.509 116.309H232.597L234.773 114.127L235.589 115.763L235.045 119.853L233.114 121.712L230.965 119.58Z" fill="#EACDB0"/>
<path d="M191.064 114.558L193.423 110.856L192.334 109.493L190.974 110.856L189.614 107.039L186.622 108.402L188.159 114.692L191.064 114.558Z" fill="#EACDB0"/>
<path d="M251.912 75.914L226.612 94.7699L198.102 93.1886L198.265 87.4168L222.651 84.6849L241.906 68.1356L252.217 64.9566L251.912 75.914Z" fill="#94BAAB"/>
<path d="M198.303 87.5558L191.886 87.3813L188.779 90.5549L189.652 92.2834L193.284 92.9568L198.148 91.5773L198.303 87.5558Z" fill="#EACDB0"/>
<path d="M236.906 34.7997C236.906 34.7997 233.391 36.4656 232.581 45.6236C231.77 54.7816 229.512 60.3626 229.512 60.3626C229.512 60.3626 232.194 62.4919 234.735 61.6631C237.276 60.8342 238.168 60.7634 238.231 56.9764C238.293 53.1894 240.878 35.7103 240.878 35.7103L236.906 34.7997Z" fill="#9E6652"/>
<path d="M243.413 39.5819C241.623 39.6562 239.893 40.2542 238.438 41.3022C236.983 42.3502 235.866 43.8022 235.225 45.4791C234.521 44.393 234.087 43.1536 233.96 41.8648C233.832 40.576 234.015 39.2754 234.492 38.072C234.97 36.8685 235.728 35.7973 236.704 34.9481C237.679 34.0989 238.844 33.4964 240.1 33.1911C241.912 34.838 243.007 37.1317 243.149 39.5791L243.413 39.5819Z" fill="#9E6652"/>
<path d="M235.508 42.3819C239.499 33.6574 250.486 38.0823 251.917 46.2997C252.733 50.9728 250.255 59.0921 244.689 59.1684C244.417 59.9591 243.927 61.4504 243.177 61.8376C242.36 62.2574 240.399 61.175 239.624 60.7797C239.399 60.6856 239.205 60.532 239.061 60.3353C238.906 60.0627 239.009 59.5174 239.159 58.8876C238.538 58.6906 237.945 58.4158 237.393 58.0697C234.964 56.5374 233.655 53.6011 233.527 50.722C233.399 47.8429 234.308 45.002 235.508 42.3819Z" fill="#EACDB0"/>
<path d="M240.326 33.2211C240.326 33.2211 237.997 37.9051 243.979 40.8551C249.961 43.8051 252.834 49.7868 250.448 54.7598C248.062 59.7328 242.428 62.4183 244.561 64.4113C246.694 66.4043 256.107 67.2849 256.107 67.2849C256.107 67.2849 266.172 50.1958 260.732 40.3589C255.291 30.522 244.646 27.5693 240.326 33.2211Z" fill="#9E6652"/>
<path d="M85.7997 22.2064C85.7997 22.2064 83.4329 22.4382 82.0455 24.1749C80.6581 25.9116 76.2754 33.7882 76.3326 39.9036C76.3897 46.0189 75.4375 53.612 87.5027 58.9094C93.5121 60.8751 93.6481 55.4796 98.4551 55.1524C103.262 54.8252 107.414 56.5156 106.755 49.018C106.097 41.5203 101.374 39.8436 98.7516 31.4844C96.1292 23.1252 92.0267 19.7499 85.7997 22.2064Z" fill="#C2969C"/>
<path d="M84.064 22.689L73.3755 26.3124L65.3067 27.4875L65.4264 30.9964L73.2993 32.1006L81.7653 30.432L84.064 22.689Z" fill="#C2969C"/>
<path d="M94.0453 21.7402L101.842 24.5729L108.382 22.2528L109.399 24.4503L103.229 28.9325L97.0568 29.3523L94.0453 21.7402Z" fill="#C2969C"/>
<path d="M92.0621 6.68495C92.0621 6.68495 96.9453 9.90757 96.5019 14.7769C96.5019 14.7769 99.7011 12.2059 98.33 8.62343C96.9589 5.04092 96.0312 3.63136 92.6579 4.38658C89.2846 5.1418 92.0621 6.68495 92.0621 6.68495Z" fill="#754C3D"/>
<path d="M96.4502 12.0642C95.8571 4.80918 86.8742 5.1009 83.7294 10.5919C81.9394 13.7164 81.6021 20.1534 85.5548 21.6557C85.5548 22.2909 85.5059 23.4797 85.9411 23.9513C86.3764 24.423 88.0957 24.2022 88.7513 24.1204C88.9363 24.1129 89.1155 24.0534 89.2682 23.9486C89.4451 23.8041 89.5185 23.3733 89.5729 22.8907C90.0681 22.9098 90.5636 22.8649 91.0474 22.7572C93.1775 22.2964 94.8696 20.5433 95.7075 18.523C96.5454 16.5028 96.6297 14.2453 96.4502 12.0642Z" fill="#EACDB0"/>
<path d="M93.2047 8.59344C90.6883 11.2408 86.6974 11.4098 84.3007 13.9781C84.3007 13.9781 82.7337 15.6603 83.1364 19.6627C81.8528 19.6579 80.5988 19.2763 79.5293 18.565C78.4598 17.8536 77.6218 16.8438 77.1188 15.6603C75.2852 11.4834 79.5073 3.24694 79.5073 3.24694C79.5073 3.24694 84.4585 -0.360105 90.9522 1.16941C93.1557 1.68743 95.1416 3.35054 94.6601 5.86702C94.4505 6.89856 93.9446 7.8462 93.2047 8.59344Z" fill="#754C3D"/>
<path d="M83.977 22.779C83.977 22.779 83.4846 26.446 85.4215 26.8604C87.3585 27.2748 91.8309 26.4596 92.6008 25.7862C93.6699 24.8538 92.6008 22.1573 92.6008 22.1573L94.0399 21.7402C94.0399 21.7402 100.694 35.3723 95.3348 37.4035C89.9755 39.4346 83.1908 40.0263 82.0808 35.724C80.9709 31.4217 82.5569 23.3651 82.5569 23.3651L83.977 22.779Z" fill="#F2D263"/>
<path d="M65.3176 27.8637L61.3702 26.934L61.1907 27.7656L63.8839 30.083L63.2092 30.522L63.7043 30.9173L65.41 30.4811L65.3176 27.8637Z" fill="#EACDB0"/>
<path d="M108.48 22.5363L109.497 21.2767L111.494 21.4158L112.03 22.9807L111.119 24.5266L109.391 24.3412L108.48 22.5363Z" fill="#EACDB0"/>
<path d="M124.318 113.269L125.303 155.454L118.015 209.947L111.913 210.021L107.468 159.871L98.5258 109.776L124.318 113.269Z" fill="#8C9498"/>
<path d="M111.94 209.293L111.981 212.597L118.616 215.825L121.875 212.48L118.537 209.214L111.94 209.293Z" fill="#3A3029"/>
<path d="M91.1834 210.885L96.4284 215.354L95.1172 217.982L85.4134 215.877V210.885H91.1834Z" fill="#3A3029"/>
<path d="M103.164 129.864L98.8033 170.752L93.0523 211.509L84.8475 211.12L85.1468 168.838L80.2065 129.622L91.8064 124.207L103.164 129.864Z" fill="#8C9498"/>
<path d="M108.001 54.6916C108.001 54.6916 118.132 61.4068 124.571 83.1827C131.125 105.357 130.162 134.685 130.162 134.685C130.162 134.685 72.5294 144.47 73.7237 134.848C73.7237 134.848 71.8194 57.1454 97.3914 55.2369C98.5531 55.1497 107.373 54.2091 108.001 54.6916Z" fill="#A1BDCC"/>
<path d="M105.553 56.8728C109.905 67.5058 113.17 77.5172 117.626 88.0902C120.273 94.361 120.3 100.904 120.678 107.576L122.281 135.89L98.2076 138.425C99.595 130.388 101.181 122.383 102.422 114.321C103.564 106.886 105.316 98.5378 103.95 91.0402C103.287 87.3922 102.568 83.7443 101.886 80.0964C100.634 73.403 100.076 66.5543 98.7652 59.8718C98.6728 59.4029 99.7065 56.7937 99.8534 56.3275L105.553 56.8728Z" fill="white"/>
<path d="M98.7924 56.4365L98.8088 57.6907L92.2417 73.144L89.3362 72.1816L91.0365 57.14L95.5551 54.5717C95.8835 54.3879 96.2537 54.2925 96.6298 54.2948C97.0059 54.2971 97.3749 54.397 97.701 54.5849C98.0271 54.7727 98.299 55.042 98.4903 55.3665C98.6816 55.691 98.7857 56.0597 98.7924 56.4365Z" fill="#EACDB0"/>
<path d="M92.6225 72.9559L94.1922 75.7859L92.9653 76.4975L89.1295 73.9347L89.3852 71.8817L92.6225 72.9559Z" fill="#3A3029"/>
<path d="M111.301 51.529L112.057 52.5323L115.923 68.8744L113.015 69.8287L105.477 56.7092L107.59 51.9543C107.746 51.6109 107.987 51.3136 108.291 51.0916C108.595 50.8696 108.952 50.7304 109.325 50.6875C109.699 50.6447 110.078 50.6997 110.424 50.8472C110.77 50.9946 111.072 51.2296 111.301 51.529Z" fill="#E0C5A9"/>
<path d="M116.127 68.7872L119.062 70.1313L118.497 71.4318L113.894 71.6499L112.884 69.8478L116.127 68.7872Z" fill="#3A3029"/>
<path d="M105.452 57.2763L99.8208 56.3684C99.8949 54.8494 100.09 53.3387 100.403 51.8507C98.8632 51.2018 97.0949 50.2585 96.9208 48.579C96.8938 48.0504 96.9572 47.5211 97.1085 47.0141L98.6075 40.6452C98.7816 39.9117 98.9638 39.1538 99.4045 38.5431C100.18 37.4716 101.581 37.0654 102.892 36.9209C106.244 36.5446 109.813 37.4852 112.25 39.8163C112.929 40.4134 113.438 41.1788 113.728 42.0356C114.114 43.3661 113.679 44.7838 113.246 46.1007L112.049 49.7486C111.592 51.1446 110.961 52.7286 109.557 53.1785C108.815 53.4157 107.963 53.2821 107.283 53.6611C106.078 54.3427 106.129 56.0767 105.452 57.2763Z" fill="#EACDB0"/>
<path d="M125.235 36.9781C125.341 35.5314 125.275 34.0771 125.039 32.6459C124.677 30.3093 122.028 29.1015 119.691 28.7962C114.639 28.1282 109.884 25.5245 104.818 26.9885C101.924 27.8283 98.1069 27.8365 95.4545 29.1097C94.3566 29.6747 93.4133 30.5002 92.7069 31.5144C91.4673 33.2562 90.7394 35.3112 90.6058 37.4464C90.4721 39.5817 90.938 41.7117 91.9506 43.5951C92.4247 44.4251 92.9709 45.2115 93.5828 45.9453C94.8315 47.4803 96.3223 49.3724 98.1287 50.0213C98.2729 48.3854 97.0895 43.0853 98.4333 41.8121C100.569 39.7891 105.058 40.8142 107.514 41.4931C110.191 42.2347 112.493 44.3067 115.159 44.882C117.076 45.2964 119.604 44.4949 121.309 43.5924C123.981 42.1801 125.004 39.6309 125.235 36.9781Z" fill="#3A3029"/>
<path d="M91.1344 57.1454L61.2097 75.685L67.4667 85.7728L85.9656 77.0482L91.1344 57.1454Z" fill="#A1BDCC"/>
<path d="M81.5286 49.3697L61.1662 75.6905L67.4667 85.8382L74.5398 82.5011L86.069 52.6686L81.5286 49.3697Z" fill="#AECCDC"/>
<path d="M82.4263 50.0213L85.1495 46.5124L91.6785 45.4218L92.7667 48.1482L89.5022 50.8747L85.3699 52.1615L82.4263 50.0213Z" fill="#EACDB0"/>
</svg>
