<svg width="38" height="35" viewBox="0 0 38 35" fill="none" xmlns="http://www.w3.org/2000/svg">
<g clip-path="url(#clip0_4082_565)">
<path d="M30.5954 25.5753C30.5954 25.6559 30.5954 26.235 30.5954 26.3156C30.5267 31.1769 25.295 35.0431 18.9099 34.9513C12.5249 34.8594 7.40462 30.8452 7.47334 25.9839C7.47334 25.9033 7.47334 25.8227 7.48448 25.7421L30.5954 25.5753Z" fill="#EBEBEC"/>
<path d="M19.129 35H18.9062C15.8084 34.955 12.9074 33.9955 10.7345 32.2957C8.5616 30.596 7.39157 28.3602 7.41943 25.9858C7.41943 25.9277 7.41943 25.8715 7.41943 25.8152V25.7403C7.42034 25.7283 7.42557 25.7171 7.43414 25.7088C7.4427 25.7005 7.454 25.6957 7.46586 25.6953L30.5786 25.5285C30.5911 25.5285 30.6031 25.5334 30.6121 25.5421C30.6211 25.5508 30.6264 25.5628 30.6269 25.5754C30.6269 25.6578 30.6269 26.2406 30.6269 26.325C30.5935 28.69 29.3529 30.8958 27.1335 32.5356C24.9848 34.1267 22.1451 35 19.129 35ZM7.52529 25.789V25.819C7.52529 25.8733 7.52529 25.9296 7.52529 25.9839C7.49372 28.3209 8.65818 30.5341 10.8069 32.2189C12.9557 33.9037 15.8288 34.8576 18.908 34.9026H19.129C22.1247 34.9026 24.942 34.0368 27.0889 32.4513C29.2841 30.8284 30.5099 28.6488 30.5433 26.3137C30.5433 26.2444 30.5433 25.7834 30.5433 25.6203L7.52529 25.789Z" fill="#9D9FA2"/>
<path d="M8.13092 28.9074C8.08263 28.7613 8.0232 28.617 7.96191 28.4727C10.6716 30.7665 14.5828 32.2339 18.9435 32.3032C23.3042 32.3726 27.221 31.0176 29.9919 28.8194C29.8626 29.2112 29.6827 29.5842 29.4571 29.9288C26.662 31.8216 22.968 32.9517 18.9361 32.8936C14.8317 32.8355 11.1117 31.5592 8.35007 29.5203C8.26364 29.3211 8.19043 29.1164 8.13092 28.9074Z" fill="#0086B6"/>
<path d="M8.13092 28.9074C8.08263 28.7613 8.0232 28.617 7.96191 28.4727C10.6716 30.7665 14.5828 32.2339 18.9435 32.3032C23.3042 32.3726 27.221 31.0176 29.9919 28.8194C29.8626 29.2112 29.6827 29.5842 29.4571 29.9288C26.662 31.8216 22.968 32.9517 18.9361 32.8936C14.8317 32.8355 11.1117 31.5592 8.35007 29.5203C8.26364 29.3211 8.19043 29.1164 8.13092 28.9074Z" fill="#0086B6"/>
<g style="mix-blend-mode:multiply">
<path d="M29.5683 29.7508C29.533 29.8107 29.4977 29.8707 29.4569 29.9288C26.6618 31.8216 22.9678 32.9517 18.9359 32.8936C14.8315 32.8355 11.1115 31.5592 8.34987 29.5202C8.32387 29.4659 8.30158 29.4097 8.2793 29.3535C10.9722 31.4843 14.7368 32.7062 18.9247 32.7661C23.0588 32.828 26.8252 31.7485 29.5683 29.7508Z" fill="#0086B6"/>
</g>
<g style="mix-blend-mode:multiply">
<path d="M29.4143 27.5637C28.7157 28.2106 27.9312 28.7562 27.0835 29.1848C26.2028 29.6344 25.2802 29.9954 24.3293 30.2624C23.3886 30.5298 22.4286 30.7221 21.4581 30.8377C20.9963 30.894 20.532 30.9327 20.0652 30.9539C19.6603 30.9708 19.2592 30.9652 18.8543 30.9539C18.3581 30.9305 17.8608 30.9525 17.3686 31.0195C16.9785 31.0814 16.5291 31.2069 16.2895 31.5499C15.9961 31.9734 16.1372 32.5056 16.3954 32.9067C16.6916 33.3371 17.0651 33.7077 17.4967 33.9993C18.1751 34.4647 18.9414 34.7837 19.7476 34.9363C19.4709 34.9475 19.1905 34.9532 18.9119 34.9494C12.5269 34.8576 7.40658 30.8434 7.47529 25.982C7.47529 25.9014 7.47529 25.8209 7.48644 25.7403L30.601 25.5735C30.601 25.6297 30.601 25.9333 30.601 26.1357C30.2667 26.6603 29.8679 27.1401 29.4143 27.5637Z" fill="#D5D5D7"/>
</g>
<g style="mix-blend-mode:multiply">
<path d="M28.2499 27.4157C27.3356 28.1613 26.315 28.7635 25.2226 29.2017C23.9382 29.7111 22.5923 30.0457 21.2204 30.1968C19.7534 30.3568 18.2727 30.3404 16.8096 30.1481C16.0667 30.0562 15.3238 29.9475 14.5809 29.792C14.0535 29.6796 13.5483 29.4846 13.0246 29.3628C12.5844 29.2616 12.0421 29.1548 11.6243 29.3834C11.5062 29.445 11.4089 29.5406 11.3447 29.658C11.2806 29.7755 11.2525 29.9095 11.264 30.0431C11.3057 30.3751 11.4275 30.6917 11.6187 30.9652C11.8341 31.3041 12.077 31.6244 12.3449 31.9228C12.8291 32.4762 13.3632 32.9831 13.9402 33.437C14.4775 33.8555 15.0556 34.2178 15.6655 34.5184L15.8048 34.5821C10.9408 33.4801 7.40845 30.0263 7.46603 25.9839C7.46603 25.9033 7.46603 25.8227 7.47717 25.7421L30.0049 25.5791C29.4927 26.2581 28.9037 26.8744 28.2499 27.4157Z" fill="#D5D5D7"/>
</g>
<path d="M30.604 25.6175C30.6369 23.2931 25.4873 21.334 19.102 21.2418C12.7166 21.1496 7.51356 22.9591 7.48059 25.2835C7.44763 27.6079 12.5972 29.567 18.9826 29.6592C25.3679 29.7515 30.571 27.9419 30.604 25.6175Z" fill="#EBEBEC"/>
<path d="M19.4486 29.7076H18.9805C15.8865 29.6645 12.9837 29.1829 10.8089 28.3546C8.63413 27.5262 7.41581 26.4243 7.42881 25.2811C7.46224 22.9329 12.6958 21.0982 19.0975 21.19C25.4993 21.2818 30.679 23.2665 30.6456 25.6147C30.6289 26.7597 29.4013 27.8148 27.1856 28.5869C25.1 29.3122 22.3662 29.7076 19.4486 29.7076ZM18.637 21.2743C12.5082 21.2743 7.55882 23.036 7.52724 25.2755C7.51053 26.3774 8.68799 27.4363 10.8405 28.2552C12.993 29.0742 15.8995 29.5577 18.9824 29.6027C22.0653 29.6477 24.9681 29.2504 27.154 28.4895C29.34 27.7286 30.536 26.7091 30.5509 25.6053C30.5843 23.3096 25.4454 21.3699 19.0957 21.2781L18.637 21.2743Z" fill="#9D9FA2"/>
<path d="M29.2307 25.3592C29.2595 23.3225 24.7476 21.6059 19.153 21.5251C13.5584 21.4443 8.99965 23.0299 8.97076 25.0666C8.94188 27.1033 13.4538 28.8198 19.0484 28.9006C24.643 28.9814 29.2018 27.3959 29.2307 25.3592Z" fill="#0086B6"/>
<g style="mix-blend-mode:multiply">
<path d="M19.146 21.8797C14.204 21.8085 10.1776 23.2084 10.1534 25.0075C10.1293 26.8066 14.1148 28.3227 19.0549 28.3939C23.9951 28.4651 28.0215 27.0633 28.0475 25.2642C28.0735 23.4651 24.0879 21.949 19.146 21.8797Z" fill="#0086B6"/>
</g>
<g style="mix-blend-mode:screen">
<path d="M18.8765 21.5217H19.1513H19.3148L19.2758 24.3235L21.5304 21.6548C21.7068 21.6735 21.8833 21.6923 22.056 21.7148L19.9611 24.196L24.2846 22.1139C24.5137 22.1664 24.7365 22.2226 24.9532 22.2826L20.7132 24.3441L27.2134 23.1203C27.4307 23.229 27.6313 23.3414 27.817 23.4576L21.2054 24.702L29.1207 24.8163C29.1784 24.9577 29.2123 25.1078 29.221 25.2605L20.5999 25.1368L27.4066 27.44C27.2208 27.5337 27.0351 27.6274 26.8197 27.7099L19.8106 25.3373L22.7097 28.7106C22.5351 28.7331 22.3606 28.7537 22.1823 28.7706L19.2609 25.3561L19.2108 28.8999H19.0473H18.7725L18.8189 25.6016L16.3433 28.7275C16.1724 28.7088 16.0015 28.6863 15.8325 28.6638L18.3082 25.521L13.2417 28.1447C13.03 28.0866 12.8239 28.0285 12.6252 27.9573L17.6693 25.3336L10.1031 26.7991C9.94598 26.6849 9.79704 26.5596 9.65737 26.4243L16.8187 25.0618L8.97949 24.9494C8.99665 24.7983 9.03739 24.6509 9.10021 24.5127L17.9962 24.6402L12.3262 22.3913C12.549 22.322 12.7812 22.2545 13.0226 22.1926L18.4085 24.3328L16.1575 21.6435L16.6924 21.5967L18.8393 24.1754L18.8765 21.5217Z" fill="#00A8CE"/>
</g>
<path d="M27.3126 25.1223C27.336 23.4716 23.6793 22.0804 19.1452 22.0149C14.611 21.9494 10.9164 23.2345 10.893 24.8851C10.8696 26.5358 14.5262 27.927 19.0604 27.9925C23.5945 28.058 27.2892 26.773 27.3126 25.1223Z" fill="#EBEBEC"/>
<path d="M19.3908 28.0397H19.0583C14.5063 27.9741 10.8217 26.5592 10.8458 24.8857C10.87 23.2121 14.5936 21.9003 19.1438 21.9678C21.3427 21.9996 23.4153 22.3426 24.953 22.9292C26.4908 23.5157 27.3674 24.3028 27.3581 25.1218C27.3488 25.9408 26.4704 26.696 24.8918 27.2451C23.4004 27.7605 21.4652 28.0397 19.3908 28.0397ZM18.815 22.0577C14.4655 22.0577 10.9628 23.3021 10.9405 24.8838C10.9164 26.5067 14.5602 27.8823 19.0602 27.9441C21.2461 27.9741 23.3076 27.6949 24.862 27.1533C26.4165 26.6117 27.2523 25.8958 27.2634 25.1181C27.2745 24.3403 26.4425 23.5944 24.9196 23.0154C23.3967 22.4363 21.3297 22.0914 19.1438 22.0596L18.815 22.0577Z" fill="#9D9FA2"/>
<g style="mix-blend-mode:multiply">
<path d="M25.8494 24.7722C25.8679 23.4661 22.8649 22.3637 19.142 22.31C15.4191 22.2562 12.3861 23.2714 12.3675 24.5774C12.349 25.8835 15.352 26.9858 19.0749 27.0396C22.7978 27.0934 25.8308 26.0782 25.8494 24.7722Z" fill="#D5D5D7"/>
</g>
<path d="M23.2015 24.5844C23.2127 23.7906 21.3876 23.121 19.1251 23.0887C16.8626 23.0564 15.0195 23.6737 15.0084 24.4675C14.9973 25.2613 16.8224 25.931 19.0848 25.9632C21.3473 25.9955 23.1904 25.3782 23.2015 24.5844Z" fill="#3273A8"/>
<g style="mix-blend-mode:multiply">
<g style="mix-blend-mode:multiply">
<path d="M23.2039 24.5877C23.1992 24.7115 23.1563 24.8307 23.0813 24.9288C22.6523 24.2953 21.0384 23.8043 19.1199 23.7781C17.2014 23.7519 15.5745 24.1923 15.127 24.8145C15.0539 24.7146 15.0142 24.5938 15.0137 24.4696C15.0248 23.6769 16.8709 23.0585 19.1292 23.0922C21.3876 23.1259 23.215 23.8006 23.2039 24.5877Z" fill="#D5D5D7"/>
</g>
</g>
<g style="mix-blend-mode:screen">
<path d="M26.4705 30.7159C25.9198 30.8837 25.4056 31.1552 24.955 31.5161C24.5836 31.8141 24.2363 32.2039 24.1546 32.693C24.1087 32.8845 24.1394 33.0864 24.24 33.2553C24.3076 33.3338 24.3955 33.3918 24.4939 33.4229C24.5922 33.454 24.6972 33.4569 24.7971 33.4314C25.436 33.334 26.0117 32.9385 26.4946 32.5262C26.6746 32.3902 26.8407 32.2364 26.9905 32.0671C27.0773 31.9609 27.144 31.8396 27.1873 31.7092C27.3457 31.5271 27.455 31.307 27.5049 31.0701C27.5904 30.4554 26.8159 30.6147 26.4705 30.7159Z" fill="#00A8CE"/>
</g>
<g style="mix-blend-mode:screen">
<path d="M22.8934 33.1541C22.7708 33.1222 22.6519 33.2253 22.5814 33.3152C22.5733 33.326 22.5659 33.3373 22.5591 33.349C22.5203 33.3921 22.49 33.4424 22.4699 33.497C22.4544 33.5359 22.4477 33.5777 22.4502 33.6196C22.4528 33.6614 22.4646 33.7021 22.4848 33.7388C22.5056 33.7697 22.5306 33.7974 22.5591 33.8212C22.5753 33.8417 22.594 33.8599 22.6148 33.8756C22.6879 33.925 22.7738 33.9517 22.8618 33.9524C22.9361 33.9564 23.0104 33.9462 23.081 33.9224C23.1802 33.8906 23.2701 33.8346 23.3428 33.7594C23.3682 33.7339 23.3906 33.7056 23.4097 33.675C23.4401 33.6377 23.4668 33.5976 23.4895 33.5551C23.521 33.4932 23.5289 33.4219 23.5118 33.3546C23.5056 33.3271 23.4921 33.3018 23.4728 33.2815C23.4655 33.2533 23.4492 33.2282 23.4264 33.2103C23.3452 33.1549 23.247 33.1309 23.1497 33.1428C23.1169 33.1399 23.084 33.1399 23.0512 33.1428C23.0055 33.1451 22.9601 33.152 22.9157 33.1634H22.9008L22.8934 33.1541Z" fill="#00A8CE"/>
</g>
<path d="M19.0009 0.046875C8.5319 0.046875 0.0463867 7.87109 0.0463867 17.5375C0.0463867 17.9985 0.0668158 18.4577 0.10396 18.9112C0.26961 20.7619 0.894841 22.5407 1.92189 24.0831C2.94893 25.6256 4.34466 26.882 5.98011 27.7362C9.65921 29.6796 14.1518 30.8227 19.0009 30.8227C23.85 30.8227 28.3407 29.6796 32.0198 27.7362C33.6555 26.8818 35.0514 25.6251 36.0785 24.0823C37.1055 22.5395 37.7306 20.7604 37.896 18.9093C37.935 18.4558 37.9535 17.9966 37.9535 17.5356C37.9535 7.87109 29.468 0.046875 19.0009 0.046875Z" fill="#EBEBEC"/>
<path d="M19.0009 30.8714C14.2967 30.8714 9.7874 29.8032 5.95787 27.7811C4.31241 26.9263 2.90831 25.6649 1.87656 24.1145C0.844808 22.5641 0.21902 20.7753 0.0575729 18.9149C0.0185719 18.4595 0 17.991 0 17.5375C0 7.87106 8.52265 0 19.0009 0C29.4792 0 38 7.87106 38 17.5375C38 17.9948 37.9814 18.4595 37.9424 18.9149C37.781 20.7753 37.1552 22.5641 36.1234 24.1145C35.0917 25.6649 33.6876 26.9263 32.0421 27.7811C28.2145 29.7976 23.7033 30.8714 19.0009 30.8714ZM19.0009 0.0955772C8.57465 0.0955772 0.0947168 7.91979 0.0947168 17.5375C0.0947168 17.9929 0.113289 18.4539 0.15229 18.9074C0.311611 20.752 0.931793 22.5258 1.95487 24.0629C2.97795 25.5999 4.37053 26.8502 6.00244 27.6968C9.81712 29.7114 14.3115 30.7777 19.0028 30.7777C23.6941 30.7777 28.1847 29.7114 32.0031 27.6968C33.6345 26.8495 35.0266 25.5991 36.0496 24.0621C37.0726 22.5252 37.6931 20.7518 37.8533 18.9074C37.8904 18.4539 37.9109 17.9929 37.9109 17.5375C37.9071 7.91979 29.4253 0.0955772 19.0009 0.0955772Z" fill="#9D9FA2"/>
<path d="M19.0009 0.046875C8.5319 0.046875 0.0463867 7.87109 0.0463867 17.5375C0.0463867 17.9985 0.0668158 18.4577 0.10396 18.9112C0.26961 20.7619 0.894841 22.5407 1.92189 24.0831C2.94893 25.6256 4.34466 26.882 5.98011 27.7362C9.65921 29.6796 14.1518 30.8227 19.0009 30.8227C23.85 30.8227 28.3407 29.6796 32.0198 27.7362C33.6555 26.8818 35.0514 25.6251 36.0785 24.0823C37.1055 22.5395 37.7306 20.7604 37.896 18.9093C37.935 18.4558 37.9535 17.9966 37.9535 17.5356C37.9535 7.87109 29.468 0.046875 19.0009 0.046875Z" fill="#EBEBEC"/>
<path d="M19.0009 30.8714C14.2967 30.8714 9.7874 29.8032 5.95787 27.7811C4.31241 26.9263 2.90831 25.6649 1.87656 24.1145C0.844808 22.5641 0.21902 20.7753 0.0575729 18.9149C0.0185719 18.4595 0 17.991 0 17.5375C0 7.87106 8.52265 0 19.0009 0C29.4792 0 38 7.87106 38 17.5375C38 17.9948 37.9814 18.4595 37.9424 18.9149C37.781 20.7753 37.1552 22.5641 36.1234 24.1145C35.0917 25.6649 33.6876 26.9263 32.0421 27.7811C28.2145 29.7976 23.7033 30.8714 19.0009 30.8714ZM19.0009 0.0955772C8.57465 0.0955772 0.0947168 7.91979 0.0947168 17.5375C0.0947168 17.9929 0.113289 18.4539 0.15229 18.9074C0.311611 20.752 0.931793 22.5258 1.95487 24.0629C2.97795 25.5999 4.37053 26.8502 6.00244 27.6968C9.81712 29.7114 14.3115 30.7777 19.0028 30.7777C23.6941 30.7777 28.1847 29.7114 32.0031 27.6968C33.6345 26.8495 35.0266 25.5991 36.0496 24.0621C37.0726 22.5252 37.6931 20.7518 37.8533 18.9074C37.8904 18.4539 37.9109 17.9929 37.9109 17.5375C37.9071 7.91979 29.4253 0.0955772 19.0009 0.0955772Z" fill="#9D9FA2"/>
<g style="mix-blend-mode:screen">
<path d="M26.2604 3.50073C25.0718 2.28447 23.0067 1.87405 21.4318 1.5742C16.8983 0.706505 12.3315 1.94901 8.66356 4.72075C7.26695 5.77397 5.73291 7.09706 4.8136 8.62067C4.70774 8.79871 4.42731 9.22974 4.58331 9.44713C4.73931 9.66453 5.17947 9.47337 5.36147 9.37967C7.40438 8.33769 9.27829 7.10456 11.4438 6.33057C13.7302 5.52034 16.1241 5.06047 18.5457 4.96625C19.1474 4.94126 19.7491 4.94126 20.3509 4.96625C22.1393 5.02809 23.9501 5.17052 25.7367 4.89878C26.0061 4.87962 26.2642 4.78197 26.4796 4.61767C26.8845 4.23537 26.5576 3.80058 26.2604 3.50073Z" fill="#EBEBEC"/>
</g>
<g style="mix-blend-mode:multiply">
<path d="M19.0009 0.046875C8.5319 0.046875 0.0463867 7.87109 0.0463867 17.5375C0.0463867 17.9985 0.0668158 18.4577 0.10396 18.9112C0.26961 20.7619 0.894841 22.5407 1.92189 24.0831C2.94893 25.6256 4.34466 26.882 5.98011 27.7362C9.65921 29.6796 14.1518 30.8227 19.0009 30.8227C23.85 30.8227 28.3407 29.6796 32.0198 27.7362C33.6555 26.8818 35.0514 25.6251 36.0785 24.0823C37.1055 22.5395 37.7306 20.7604 37.896 18.9093C37.935 18.4558 37.9535 17.9966 37.9535 17.5356C37.9535 7.87109 29.468 0.046875 19.0009 0.046875ZM35.9199 17.1514C35.7648 18.7865 35.2007 20.355 34.2804 21.7098C33.3601 23.0646 32.1138 24.1613 30.6585 24.8969C27.3638 26.6023 23.343 27.605 19.0009 27.605C14.6588 27.605 10.6435 26.6023 7.34144 24.8969C5.88657 24.1609 4.64076 23.064 3.72083 21.7093C2.80089 20.3545 2.23694 18.7863 2.08187 17.1514C2.04658 16.7541 2.02987 16.3512 2.02987 15.9464C2.02987 7.47004 9.62764 0.599724 19.0009 0.599724C28.3741 0.599724 35.9719 7.47004 35.9719 15.9464C35.9719 16.3512 35.9533 16.7541 35.9199 17.1514Z" fill="#D5D5D7"/>
</g>
<g style="mix-blend-mode:multiply" opacity="0.58">
<path d="M30.3799 3.60006C27.0335 5.92331 23.0628 7.15796 19.0009 7.1383C14.9296 7.15605 10.9509 5.91325 7.60147 3.57758C7.52719 3.62068 7.45475 3.66566 7.38232 3.71063C10.7889 6.10889 14.8472 7.38535 19.0009 7.36506C23.1249 7.38728 27.1563 6.13201 30.5508 3.76873C30.499 3.70741 30.4418 3.65096 30.3799 3.60006Z" fill="#5D6163"/>
</g>
<path d="M32.4877 10.2324C30.5507 8.3752 20.2507 8.35834 19.0008 8.35834C17.7509 8.35834 7.44905 8.3752 5.51385 10.2324C3.45051 12.2095 2.36777 17.7774 2.72806 20.3261C2.9565 21.9359 10.5506 22.5094 16.1128 22.7118C17.1696 22.7511 18.1558 22.7118 19.0008 22.7361C19.8458 22.7193 20.8301 22.7511 21.8869 22.7118C27.4584 22.5094 35.0432 21.9359 35.2716 20.3261C35.6319 17.7774 34.5436 12.2095 32.4877 10.2324Z" fill="#575A63"/>
<path d="M32.2261 10.4404C30.328 8.65443 20.2268 8.63381 19.001 8.63756C17.7753 8.64131 7.67215 8.65443 5.7741 10.4404C3.75162 12.3445 2.69117 17.7024 3.04403 20.1556C3.26689 21.7054 10.7142 22.2564 16.1688 22.4532C17.2051 22.4888 18.1709 22.4532 19.001 22.4756C19.8293 22.4606 20.7951 22.4888 21.8314 22.4532C27.286 22.2657 34.7333 21.7035 34.9562 20.1556C35.3109 17.7024 34.2486 12.3445 32.2261 10.4404Z" fill="#989AA8"/>
<path d="M31.9105 10.6559C30.0533 8.89619 20.173 8.87557 18.9733 8.87932C17.7735 8.88307 7.89326 8.89619 6.03607 10.6559C4.05816 12.53 3.01814 17.8036 3.36543 20.2249C3.58458 21.7523 10.8685 22.2864 16.2042 22.4869C17.2182 22.5244 18.1617 22.4869 18.9733 22.5113C19.7849 22.4944 20.7283 22.5244 21.7423 22.4869C27.0781 22.2995 34.3712 21.7523 34.5811 20.2249C34.9284 17.8036 33.8884 12.53 31.9105 10.6559Z" fill="#D6ECF9"/>
<g style="mix-blend-mode:multiply">
<path d="M31.7227 10.7271C29.9008 9.01797 20.1803 8.99548 19.001 8.99548C17.8217 8.99548 8.10483 9.01235 6.27921 10.7215C4.33287 12.545 3.3077 17.6743 3.65314 20.0243C3.86672 21.5086 11.0299 22.0352 16.282 22.2226C17.2794 22.2582 18.2079 22.2226 19.0065 22.2451C19.8033 22.2301 20.7319 22.2582 21.7292 22.2226C26.9758 22.0352 34.1389 21.5086 34.3581 20.0243C34.6887 17.6799 33.6672 12.5562 31.7227 10.7271Z" fill="#5D6163"/>
</g>
<g style="mix-blend-mode:screen">
<path d="M8.32568 16.2425C10.7252 17.1795 13.2974 17.5993 15.8529 17.7567C18.496 17.9173 21.1485 17.8156 23.7719 17.4531C25.3521 17.2439 26.9108 16.894 28.4298 16.4074C29.9469 15.9375 31.3865 15.2428 32.7013 14.3459C32.9601 14.1623 33.2158 13.9749 33.4683 13.7837C33.0245 12.5206 32.4339 11.3999 31.7189 10.729C29.9007 9.01797 20.1801 8.99548 19.0008 8.99548C17.8215 8.99548 8.10467 9.01235 6.27905 10.7215C5.51389 11.4393 4.89358 12.6668 4.44043 14.0348C5.61726 14.965 6.92729 15.7094 8.32568 16.2425Z" fill="#5D6163"/>
</g>
<path style="mix-blend-mode:multiply" d="M31.7227 10.7271C29.9008 9.01797 20.1803 8.99548 19.001 8.99548C17.8217 8.99548 8.10483 9.01235 6.27921 10.7215C4.33287 12.545 3.3077 17.6743 3.65314 20.0243C3.86672 21.5086 11.0299 22.0352 16.282 22.2226C17.2794 22.2582 18.2079 22.2226 19.0065 22.2451C19.8033 22.2301 20.7319 22.2582 21.7292 22.2226C26.9758 22.0352 34.1389 21.5086 34.3581 20.0243C34.6887 17.6799 33.6672 12.5562 31.7227 10.7271ZM33.4648 19.8444C33.2623 21.2444 26.5115 21.7391 21.5676 21.9265C20.6279 21.9603 19.7531 21.9265 19.001 21.9471C18.2488 21.9677 17.3741 21.9603 16.4343 21.9265C11.4886 21.7504 4.73402 21.2537 4.53716 19.8538C4.21587 17.6312 5.17789 12.7961 7.01094 11.0794C8.73256 9.46775 17.8885 9.44901 19.001 9.45275C20.1134 9.4565 29.2675 9.46775 30.9891 11.0794C32.8222 12.7961 33.7842 17.6312 33.4648 19.8444Z" fill="url(#paint0_linear_4082_565)"/>
<path d="M11.782 19.9569C14.0447 19.9569 15.879 18.106 15.879 15.8227C15.879 13.5395 14.0447 11.6885 11.782 11.6885C9.51933 11.6885 7.68506 13.5395 7.68506 15.8227C7.68506 18.106 9.51933 19.9569 11.782 19.9569Z" fill="#EBEBEC"/>
<path d="M11.782 20.0038C10.962 20.0038 10.1605 19.7584 9.4788 19.2987C8.79708 18.839 8.26577 18.1856 7.95208 17.4211C7.63839 16.6567 7.55641 15.8156 7.71651 15.0041C7.8766 14.1927 8.27158 13.4473 8.85149 12.8624C9.4314 12.2775 10.1702 11.8793 10.9744 11.7181C11.7786 11.5569 12.6122 11.64 13.3696 11.9569C14.127 12.2738 14.7743 12.8102 15.2295 13.4983C15.6848 14.1864 15.9276 14.9953 15.9272 15.8227C15.9257 16.9315 15.4885 17.9944 14.7114 18.7782C13.9342 19.562 12.8807 20.0028 11.782 20.0038ZM11.782 11.7354C10.9809 11.7354 10.1977 11.9751 9.53162 12.4242C8.86551 12.8734 8.34634 13.5117 8.03977 14.2586C7.73319 15.0054 7.65298 15.8273 7.80927 16.6201C7.96556 17.413 8.35133 18.1413 8.91781 18.7129C9.48429 19.2845 10.206 19.6738 10.9918 19.8315C11.7775 19.9892 12.5919 19.9083 13.332 19.5989C14.0722 19.2896 14.7048 18.7657 15.1499 18.0935C15.5949 17.4214 15.8325 16.6311 15.8325 15.8227C15.831 14.7392 15.4038 13.7004 14.6445 12.9342C13.8852 12.168 12.8558 11.7369 11.782 11.7354Z" fill="#9D9FA2"/>
<path d="M11.7821 19.6946C13.9186 19.6946 15.6506 17.9468 15.6506 15.7909C15.6506 13.6349 13.9186 11.8872 11.7821 11.8872C9.64557 11.8872 7.91357 13.6349 7.91357 15.7909C7.91357 17.9468 9.64557 19.6946 11.7821 19.6946Z" fill="white"/>
<path d="M13.131 19.0594C14.9305 18.3072 15.7851 16.2254 15.0397 14.4095C14.2943 12.5936 12.2312 11.7313 10.4317 12.4835C8.63215 13.2356 7.7776 15.3175 8.52299 17.1333C9.26838 18.9492 11.3315 19.8115 13.131 19.0594Z" fill="#004770"/>
<path d="M15.1439 16.301C15.4451 14.4283 14.1849 12.6638 12.3291 12.3598C10.4733 12.0558 8.72462 13.3275 8.42338 15.2002C8.12213 17.0728 9.38237 18.8374 11.2382 19.1413C13.094 19.4453 14.8426 18.1736 15.1439 16.301Z" fill="#006BA2"/>
<path d="M11.7822 18.9074C13.5054 18.9074 14.9023 17.4978 14.9023 15.759C14.9023 14.0202 13.5054 12.6106 11.7822 12.6106C10.059 12.6106 8.66211 14.0202 8.66211 15.759C8.66211 17.4978 10.059 18.9074 11.7822 18.9074Z" fill="#0086B6"/>
<g style="mix-blend-mode:multiply">
<path d="M11.782 17.8561C12.9328 17.8561 13.8658 16.9147 13.8658 15.7534C13.8658 14.5921 12.9328 13.6507 11.782 13.6507C10.6312 13.6507 9.69824 14.5921 9.69824 15.7534C9.69824 16.9147 10.6312 17.8561 11.782 17.8561Z" fill="#006591"/>
</g>
<g style="mix-blend-mode:screen">
<path d="M14.9374 15.268C14.9385 15.5242 14.918 15.78 14.8761 16.0326C14.7423 16.7677 14.3615 17.4339 13.798 17.9189C13.2345 18.4039 12.5225 18.6782 11.7821 18.6957C11.2802 18.6959 10.7861 18.5713 10.3433 18.333C9.90051 18.0948 9.5227 17.7501 9.24327 17.3295C8.99178 16.9839 8.80889 16.5926 8.70468 16.1769C8.65871 16.0052 8.62458 15.8305 8.60254 15.6541C8.60254 15.6541 8.60254 15.6691 8.60254 15.6766C8.60254 16.528 8.93772 17.3445 9.53434 17.9466C10.131 18.5486 10.9402 18.8868 11.7839 18.8868C12.6277 18.8868 13.4369 18.5486 14.0335 17.9466C14.6301 17.3445 14.9653 16.528 14.9653 15.6766C14.9645 15.5399 14.9552 15.4035 14.9374 15.268Z" fill="#3791A9"/>
</g>
<g style="mix-blend-mode:screen">
<path d="M12.0381 13.0229C11.8971 12.937 11.7406 12.8803 11.5776 12.8561C11.4146 12.832 11.2486 12.8409 11.0891 12.8823C10.7141 12.9845 10.3662 13.169 10.0702 13.4227C9.77416 13.6764 9.53736 13.9929 9.37673 14.3497C9.19101 14.7901 9.11115 15.521 9.64602 15.7496C10.2199 15.9951 11.0593 15.6091 11.5032 15.2549C12.0084 14.8557 12.534 14.1454 12.3464 13.4633C12.2992 13.2839 12.1898 13.1276 12.0381 13.0229Z" fill="#00A8CE"/>
</g>
<g style="mix-blend-mode:screen">
<path d="M10.1902 16.458C10.1806 16.3333 10.1225 16.2174 10.0286 16.1357C9.95192 16.0717 9.85851 16.0315 9.75967 16.0199C9.66082 16.0082 9.56075 16.0257 9.47149 16.0701C9.37529 16.1234 9.2997 16.2079 9.25691 16.3099C9.21411 16.4119 9.20662 16.5255 9.23563 16.6323C9.25631 16.7451 9.31603 16.8467 9.40415 16.9192C9.49226 16.9916 9.60301 17.0301 9.71664 17.0277C9.85078 17.0072 9.97291 16.9381 10.0601 16.8332C10.1473 16.7283 10.1936 16.5949 10.1902 16.458Z" fill="#00A8CE"/>
</g>
<path d="M26.1658 19.9569C28.4285 19.9569 30.2628 18.106 30.2628 15.8227C30.2628 13.5395 28.4285 11.6885 26.1658 11.6885C23.9031 11.6885 22.0688 13.5395 22.0688 15.8227C22.0688 18.106 23.9031 19.9569 26.1658 19.9569Z" fill="#EBEBEC"/>
<path d="M26.1658 20.0038C25.3458 20.0038 24.5443 19.7584 23.8626 19.2987C23.1809 18.839 22.6496 18.1856 22.3359 17.4211C22.0222 16.6567 21.9402 15.8156 22.1003 15.0041C22.2604 14.1927 22.6554 13.4473 23.2353 12.8624C23.8152 12.2775 24.554 11.8793 25.3582 11.7181C26.1624 11.5569 26.996 11.64 27.7534 11.9569C28.5108 12.2738 29.1581 12.8102 29.6133 13.4983C30.0686 14.1864 30.3114 14.9953 30.311 15.8227C30.3095 16.9315 29.8723 17.9944 29.0952 18.7782C28.318 19.562 27.2645 20.0028 26.1658 20.0038ZM26.1658 11.7354C25.3646 11.7354 24.5815 11.9751 23.9154 12.4242C23.2493 12.8734 22.7301 13.5117 22.4236 14.2586C22.117 15.0054 22.0368 15.8273 22.1931 16.6201C22.3493 17.413 22.7351 18.1413 23.3016 18.7129C23.8681 19.2845 24.5898 19.6738 25.3755 19.8315C26.1613 19.9892 26.9757 19.9083 27.7158 19.5989C28.456 19.2896 29.0886 18.7657 29.5337 18.0935C29.9787 17.4214 30.2163 16.6311 30.2163 15.8227C30.2153 14.739 29.7882 13.6999 29.0288 12.9336C28.2694 12.1673 27.2397 11.7364 26.1658 11.7354Z" fill="#9D9FA2"/>
<path d="M26.1659 19.6946C28.3024 19.6946 30.0344 17.9468 30.0344 15.7909C30.0344 13.6349 28.3024 11.8872 26.1659 11.8872C24.0294 11.8872 22.2974 13.6349 22.2974 15.7909C22.2974 17.9468 24.0294 19.6946 26.1659 19.6946Z" fill="white"/>
<path d="M28.6587 18.2897C30.036 16.8999 30.036 14.6465 28.6587 13.2567C27.2814 11.8669 25.0484 11.8669 23.6711 13.2567C22.2938 14.6465 22.2938 16.8999 23.6711 18.2897C25.0484 19.6795 27.2814 19.6795 28.6587 18.2897Z" fill="#004770"/>
<path d="M29.5277 16.3011C29.8289 14.4284 28.5687 12.6639 26.7129 12.3599C24.857 12.0559 23.1084 13.3276 22.8072 15.2003C22.5059 17.073 23.7662 18.8375 25.622 19.1415C27.4778 19.4454 29.2264 18.1738 29.5277 16.3011Z" fill="#006BA2"/>
<path d="M26.166 18.9074C27.8892 18.9074 29.2861 17.4978 29.2861 15.759C29.2861 14.0202 27.8892 12.6106 26.166 12.6106C24.4428 12.6106 23.0459 14.0202 23.0459 15.759C23.0459 17.4978 24.4428 18.9074 26.166 18.9074Z" fill="#0086B6"/>
<g style="mix-blend-mode:multiply">
<path d="M26.1658 17.8561C27.3166 17.8561 28.2496 16.9147 28.2496 15.7534C28.2496 14.5921 27.3166 13.6507 26.1658 13.6507C25.015 13.6507 24.082 14.5921 24.082 15.7534C24.082 16.9147 25.015 17.8561 26.1658 17.8561Z" fill="#006591"/>
</g>
<g style="mix-blend-mode:screen">
<path d="M29.3212 15.268C29.3228 15.5241 29.303 15.7799 29.2617 16.0326C29.1272 16.7677 28.746 17.4337 28.1822 17.9187C27.6184 18.4036 26.9064 18.678 26.1658 18.6957C25.6642 18.696 25.1703 18.5716 24.7277 18.3333C24.2852 18.0949 23.9078 17.7502 23.6289 17.3295C23.3761 16.9844 23.1925 16.5929 23.0884 16.1769C23.0433 16.005 23.0092 15.8304 22.9863 15.6541V15.6766C22.976 16.1045 23.0507 16.5303 23.2059 16.9287C23.3612 17.3271 23.5938 17.6902 23.8901 17.9965C24.1865 18.3029 24.5406 18.5463 24.9315 18.7125C25.3225 18.8788 25.7425 18.9644 26.1667 18.9644C26.591 18.9644 27.0109 18.8788 27.4019 18.7125C27.7929 18.5463 28.147 18.3029 28.4433 17.9965C28.7396 17.6902 28.9723 17.3271 29.1275 16.9287C29.2827 16.5303 29.3574 16.1045 29.3472 15.6766C29.347 15.54 29.3383 15.4035 29.3212 15.268Z" fill="#3791A9"/>
</g>
<g style="mix-blend-mode:screen">
<path d="M26.4223 13.0229C26.2813 12.937 26.1247 12.8803 25.9618 12.8561C25.7988 12.832 25.6327 12.8409 25.4732 12.8823C25.0984 12.9847 24.7506 13.1693 24.4546 13.423C24.1586 13.6766 23.9218 13.9931 23.7609 14.3497C23.5752 14.7901 23.4972 15.521 24.0302 15.7496C24.6059 15.9951 25.4435 15.6091 25.8874 15.2549C26.3925 14.8557 26.9181 14.1454 26.7306 13.4633C26.6834 13.2839 26.574 13.1276 26.4223 13.0229Z" fill="#00A8CE"/>
</g>
<g style="mix-blend-mode:screen">
<path d="M24.5743 16.458C24.5661 16.3341 24.5101 16.2183 24.4183 16.1357C24.3417 16.0715 24.2483 16.0311 24.1494 16.0195C24.0505 16.0078 23.9503 16.0254 23.8611 16.0701C23.7649 16.1234 23.6893 16.2079 23.6466 16.3099C23.6038 16.4119 23.5963 16.5255 23.6253 16.6323C23.646 16.745 23.7057 16.8467 23.7938 16.9192C23.8819 16.9916 23.9927 17.0301 24.1063 17.0277C24.2394 17.006 24.3602 16.9363 24.4463 16.8315C24.5323 16.7267 24.5778 16.594 24.5743 16.458Z" fill="#00A8CE"/>
</g>
<path d="M17.7564 27.3313C17.4823 27.3339 17.2084 27.3145 16.9374 27.2732C16.8613 27.2593 16.7938 27.2155 16.7497 27.1513C16.7056 27.0872 16.6886 27.008 16.7024 26.9312C16.7162 26.8544 16.7597 26.7863 16.8232 26.7418C16.8868 26.6974 16.9653 26.6802 17.0414 26.6941C17.6264 26.779 18.2214 26.765 18.802 26.6529C20.0426 26.4074 20.9396 25.7402 21.4726 24.6664C21.4884 24.6297 21.5115 24.5966 21.5404 24.5692C21.5694 24.5418 21.6035 24.5206 21.6408 24.507C21.6781 24.4934 21.7178 24.4876 21.7574 24.49C21.797 24.4924 21.8357 24.5029 21.8712 24.5209C21.9066 24.5389 21.938 24.564 21.9635 24.5947C21.989 24.6254 22.008 24.661 22.0194 24.6994C22.0308 24.7377 22.0343 24.778 22.0297 24.8178C22.0251 24.8576 22.0125 24.896 21.9926 24.9306C20.96 27.0165 18.9023 27.3313 17.7564 27.3313Z" fill="#006591"/>
<g style="mix-blend-mode:multiply">
<path d="M21.785 24.5109C21.7234 24.4992 21.6596 24.5081 21.6033 24.5361C21.5471 24.5642 21.5013 24.6099 21.473 24.6664C20.94 25.7403 20.043 26.4074 18.8024 26.6529C18.2218 26.765 17.6269 26.779 17.0418 26.6942C16.9851 26.6839 16.9268 26.6907 16.8739 26.7137C16.8211 26.7367 16.7761 26.7749 16.7446 26.8235C17.0156 26.8658 17.2895 26.8858 17.5636 26.8834C18.704 26.8834 20.7469 26.5705 21.785 24.5109Z" fill="#006591"/>
</g>
<g style="mix-blend-mode:multiply">
<path d="M21.785 24.5109C21.7234 24.4992 21.6596 24.5081 21.6033 24.5361C21.5471 24.5642 21.5013 24.6099 21.473 24.6664C20.94 25.7403 20.043 26.4074 18.8024 26.6529C18.2218 26.765 17.6269 26.779 17.0418 26.6942C16.9851 26.6839 16.9268 26.6907 16.8739 26.7137C16.8211 26.7367 16.7761 26.7749 16.7446 26.8235C17.0156 26.8658 17.2895 26.8858 17.5636 26.8834C18.704 26.8834 20.7469 26.5705 21.785 24.5109Z" fill="#006591"/>
</g>
<path d="M3.4359 13.1418C4.04968 11.4177 4.04721 9.83877 3.43039 9.61518C2.81356 9.39158 1.81595 10.608 1.20217 12.3321C0.588388 14.0562 0.590858 15.6351 1.20769 15.8587C1.82452 16.0823 2.82212 14.8659 3.4359 13.1418Z" fill="#EBEBEC"/>
<path d="M1.36117 15.9295C1.30306 15.9298 1.24532 15.9203 1.1903 15.9014C0.540288 15.6653 0.52543 14.0892 1.15688 12.3126C1.41087 11.5545 1.78739 10.844 2.27119 10.2099C2.70577 9.67953 3.11993 9.46026 3.43936 9.56708C4.08938 9.80321 4.10424 11.3793 3.47094 13.154C3.21735 13.9129 2.8408 14.6241 2.35662 15.2586C1.99633 15.7009 1.65089 15.9295 1.36117 15.9295ZM1.24602 12.3482C0.651719 14.018 0.640576 15.6053 1.22188 15.8152C1.49674 15.9145 1.88489 15.6915 2.28605 15.2005C2.76923 14.5763 3.14584 13.8752 3.40036 13.1259C3.99281 11.458 4.00395 9.87068 3.42265 9.66079C3.14964 9.56146 2.76149 9.78447 2.36034 10.2736C1.8773 10.8979 1.5007 11.599 1.24602 12.3482Z" fill="#9D9FA2"/>
<path d="M1.27234 12.3688C1.81093 10.8583 2.68381 9.79195 3.22425 9.98873C3.7647 10.1855 3.76655 11.5667 3.22425 13.0791C2.68195 14.5914 1.8165 15.6615 1.27606 15.4647C0.735616 15.268 0.743045 13.8868 1.27234 12.3688Z" fill="#0086B6"/>
<g style="mix-blend-mode:multiply">
<path d="M1.36672 12.41C1.84216 11.0738 2.61289 10.1331 3.09019 10.3073C3.56749 10.4816 3.56935 11.7035 3.09019 13.0379C2.61103 14.3722 1.85701 15.3111 1.37043 15.1387C0.883846 14.9663 0.891275 13.7444 1.36672 12.41Z" fill="#0086B6"/>
</g>
<g style="mix-blend-mode:screen">
<path d="M1.2998 12.3014L1.27194 12.3688C1.26616 12.3835 1.2612 12.3985 1.25708 12.4138L1.99996 12.6837L1.07137 13.0229C1.05837 13.0716 1.04722 13.1203 1.03608 13.1691L1.89967 12.8542L0.913504 13.8119C0.913504 13.8793 0.896789 13.9449 0.889361 13.9993L1.85696 13.0622L0.883789 14.6983C0.883789 14.7676 0.900504 14.8332 0.911647 14.8857L1.90153 13.2346L1.14008 15.3823C1.17241 15.4112 1.20869 15.4351 1.2478 15.4535L2.07611 13.1185L2.00368 15.1799C2.04639 15.1387 2.08911 15.0956 2.13368 15.0487L2.20797 12.931L2.8097 14.0555C2.83384 14.0105 2.85613 13.9655 2.87841 13.9187L2.27111 12.7942L3.21271 13.1334C3.21877 13.1195 3.22374 13.1051 3.22756 13.0903C3.23685 13.066 3.24614 13.0397 3.25357 13.0154L2.37883 12.6987L3.45229 12.3482C3.46529 12.2995 3.47643 12.2526 3.48571 12.2058L2.41412 12.5562L3.61386 11.458C3.61386 11.3943 3.625 11.3343 3.62872 11.2706L2.43083 12.3688L3.56743 10.4798C3.55402 10.4261 3.53664 10.3734 3.51543 10.3224L2.44012 12.1102L3.19414 9.99251C3.1525 9.98064 3.10914 9.97621 3.06599 9.9794L2.21168 12.3688L2.18197 10.6203C2.14111 10.6728 2.10025 10.729 2.06125 10.7871L2.08725 12.4475L1.60252 11.5836C1.58024 11.6286 1.55795 11.6754 1.53752 11.7223L2.00182 12.5562L1.2998 12.3014Z" fill="#00A8CE"/>
</g>
<path d="M1.40214 12.4213C1.83858 11.1975 2.54617 10.3336 2.98447 10.4947C3.42276 10.6559 3.42276 11.7747 2.98447 12.9985C2.54617 14.2223 1.84229 15.0843 1.40585 14.9269C0.969413 14.7695 0.965699 13.6469 1.40214 12.4213Z" fill="#EBEBEC"/>
<path d="M1.51372 14.9925C1.47143 14.9922 1.42945 14.9852 1.38929 14.9719C0.928706 14.8051 0.90642 13.6807 1.35772 12.4063C1.53925 11.8651 1.80917 11.3584 2.15631 10.907C2.46832 10.5322 2.76918 10.3617 2.99947 10.446C3.46934 10.6166 3.4842 11.7429 3.03105 13.0116C2.61875 14.1735 1.97988 14.9925 1.51372 14.9925ZM2.87504 10.521C2.68932 10.521 2.46646 10.6784 2.22874 10.9689C1.88882 11.4113 1.62456 11.9079 1.44686 12.4382C1.02714 13.6151 1.01599 14.7339 1.42086 14.8744C1.82573 15.015 2.52403 14.1511 2.94376 12.9741C3.36348 11.7972 3.37463 10.6765 2.9679 10.5379C2.93829 10.5264 2.90677 10.5206 2.87504 10.521Z" fill="#9D9FA2"/>
<g style="mix-blend-mode:multiply">
<path d="M1.48583 12.4494C1.84427 11.4449 2.41443 10.7328 2.76172 10.8583C3.10902 10.9839 3.09787 11.9003 2.74129 12.9048C2.38471 13.9093 1.8127 14.6233 1.4654 14.4978C1.11811 14.3722 1.11439 13.4558 1.48583 12.4494Z" fill="#D5D5D7"/>
</g>
<path d="M1.68817 12.5262C1.90546 11.9153 2.24533 11.4824 2.46262 11.5573C2.67991 11.6323 2.66877 12.1908 2.44962 12.8017C2.23047 13.4126 1.89246 13.8456 1.67517 13.7706C1.45788 13.6956 1.47088 13.1372 1.68817 12.5262Z" fill="#3273A8"/>
<g style="mix-blend-mode:multiply">
<g style="mix-blend-mode:multiply">
<path d="M1.67138 13.7706C1.70451 13.7819 1.7404 13.7819 1.77353 13.7706C1.6491 13.5832 1.68067 13.1109 1.86639 12.5918C2.05211 12.0727 2.33068 11.681 2.53869 11.6229C2.51957 11.5931 2.49163 11.5702 2.45883 11.5573C2.24897 11.4824 1.90167 11.9153 1.68438 12.5262C1.46709 13.1372 1.46523 13.6938 1.67138 13.7706Z" fill="#D5D5D7"/>
</g>
</g>
<path d="M36.8446 12.3332C36.2299 10.609 35.2326 9.39091 34.616 9.6158C33.9994 9.84068 33.9975 11.4186 34.616 13.1428C35.2344 14.8669 36.228 16.0832 36.8446 15.8602C37.4612 15.6372 37.4575 14.0555 36.8446 12.3332Z" fill="#EBEBEC"/>
<path d="M36.685 15.9295C36.3953 15.9295 36.048 15.6972 35.6877 15.2586C35.2035 14.6241 34.827 13.9129 34.5734 13.154C34.2921 12.4044 34.1364 11.6127 34.1128 10.8115C34.1128 10.1237 34.2985 9.68703 34.6068 9.56709C34.9151 9.44715 35.3404 9.67953 35.775 10.2099C36.2588 10.844 36.6353 11.5545 36.8893 12.3126C37.1717 13.062 37.328 13.8538 37.3517 14.6552C37.3517 15.343 37.166 15.7796 36.8577 15.9014C36.8021 15.9204 36.7437 15.9299 36.685 15.9295ZM34.7684 9.63268C34.7215 9.63197 34.6748 9.64024 34.631 9.65705C34.3579 9.75637 34.2001 10.1762 34.1982 10.8115C34.2231 11.6007 34.3775 12.3802 34.6551 13.1184C34.9089 13.868 35.2856 14.5692 35.7694 15.193C36.1706 15.684 36.5587 15.907 36.8317 15.8077C37.1047 15.7084 37.2644 15.2867 37.2644 14.6514C37.2414 13.861 37.0877 13.08 36.8094 12.3407C36.554 11.5919 36.1775 10.8909 35.6951 10.2661C35.3553 9.86132 35.0265 9.63643 34.7684 9.63643V9.63268Z" fill="#9D9FA2"/>
<path d="M36.7707 15.4676C37.3113 15.2717 37.3135 13.8881 36.7757 12.3773C36.2378 10.8665 35.3636 9.80062 34.823 9.99657C34.2825 10.1925 34.2802 11.5761 34.8181 13.0869C35.3559 14.5977 36.2301 15.6636 36.7707 15.4676Z" fill="#0086B6"/>
<g style="mix-blend-mode:multiply">
<path d="M36.6795 12.41C36.2041 11.0738 35.4315 10.1331 34.9542 10.3055C34.4769 10.4779 34.4769 11.7016 34.9542 13.036C35.4315 14.3703 36.2003 15.3111 36.6776 15.1387C37.1549 14.9663 37.1549 13.7444 36.6795 12.41Z" fill="#0086B6"/>
</g>
<g style="mix-blend-mode:screen">
<path d="M36.7464 12.3014L36.7724 12.3688L36.7872 12.4138L36.0444 12.6837L36.973 13.0229C36.986 13.0716 36.999 13.1203 37.0101 13.1691L36.1465 12.8542L37.1308 13.8062C37.1407 13.8737 37.1482 13.9362 37.1531 13.9936L36.1874 13.0566L37.1605 14.6795C37.1531 14.7483 37.1438 14.8107 37.1327 14.867L36.1428 13.2159L36.9043 15.3542C36.8719 15.383 36.8356 15.407 36.7965 15.4254L35.9701 13.1185L36.0425 15.1799C35.9998 15.1387 35.9552 15.0956 35.9125 15.0487L35.8438 12.931L35.2421 14.0555L35.1715 13.9187L35.7788 12.7942L34.8391 13.1334L34.8223 13.0903C34.8223 13.066 34.8056 13.0397 34.7963 13.0154L35.6729 12.6987L34.5995 12.3482C34.5865 12.2995 34.5753 12.2526 34.5642 12.2058L35.6414 12.5562L34.4416 11.458C34.4416 11.3943 34.4305 11.3343 34.4268 11.2706L35.6154 12.3688L34.4788 10.4798C34.4922 10.4261 34.5095 10.3734 34.5308 10.3224L35.6061 12.1102L34.8521 9.99251C34.8937 9.98064 34.9371 9.97621 34.9802 9.9794L35.8438 12.3688L35.8717 10.6203C35.9125 10.6728 35.9534 10.729 35.9942 10.7871L35.9682 12.4475L36.453 11.578C36.4752 11.6229 36.4957 11.6698 36.518 11.7167L36.0444 12.5562L36.7464 12.3014Z" fill="#00A8CE"/>
</g>
<path d="M36.6411 14.9294C37.0793 14.7705 37.0812 13.6492 36.6453 12.4248C36.2094 11.2004 35.5008 10.3366 35.0626 10.4954C34.6243 10.6543 34.6224 11.7757 35.0583 13.0001C35.4942 14.2245 36.2028 15.0883 36.6411 14.9294Z" fill="#EBEBEC"/>
<path d="M36.5329 14.9925C36.0668 14.9925 35.4186 14.1736 35.0137 13.0135C34.5624 11.7448 34.5773 10.6185 35.0453 10.4479C35.5133 10.2774 36.2376 11.1376 36.6889 12.4063C37.1439 13.6807 37.1254 14.8051 36.6574 14.9719C36.6172 14.9853 36.5752 14.9922 36.5329 14.9925ZM35.1735 10.521C35.1411 10.5208 35.1091 10.5265 35.0787 10.5379C34.672 10.6841 34.6832 11.8029 35.1029 12.9742C35.5226 14.1454 36.2172 15.0206 36.6239 14.8745C37.0307 14.7283 37.0195 13.6076 36.5998 12.4382C36.2154 11.3475 35.5858 10.521 35.1735 10.521Z" fill="#9D9FA2"/>
<g style="mix-blend-mode:multiply">
<path d="M36.5664 12.4494C36.2079 11.4449 35.6378 10.7328 35.2905 10.8583C34.9432 10.9839 34.9543 11.9003 35.3109 12.9048C35.6675 13.9093 36.2395 14.6233 36.5868 14.4978C36.9341 14.3722 36.9248 13.4558 36.5664 12.4494Z" fill="#D5D5D7"/>
</g>
<path d="M36.3582 12.5262C36.1409 11.9153 35.8011 11.4824 35.5838 11.5573C35.3665 11.6323 35.3776 12.1908 35.5949 12.8017C35.8122 13.4126 36.1521 13.8456 36.3712 13.7706C36.5904 13.6956 36.5755 13.1372 36.3582 12.5262Z" fill="#3273A8"/>
<g style="mix-blend-mode:multiply">
<g style="mix-blend-mode:multiply">
<path d="M36.3712 13.7706C36.3381 13.7819 36.3022 13.7819 36.2691 13.7706C36.3916 13.5832 36.3601 13.1109 36.1762 12.5918C35.9923 12.0727 35.7119 11.681 35.5039 11.6229C35.5225 11.5927 35.5506 11.5696 35.5838 11.5573C35.7936 11.4824 36.1409 11.9153 36.3582 12.5262C36.5755 13.1372 36.5866 13.6938 36.3712 13.7706Z" fill="#D5D5D7"/>
</g>
</g>
</g>
<defs>
<linearGradient id="paint0_linear_4082_565" x1="19.001" y1="10.3223" x2="19.001" y2="18.8006" gradientUnits="userSpaceOnUse">
<stop stop-color="#133564"/>
<stop offset="0.51" stop-color="#072B4D"/>
<stop offset="1" stop-color="#0A0831"/>
</linearGradient>
<clipPath id="clip0_4082_565">
<rect width="38" height="35" fill="white"/>
</clipPath>
</defs>
</svg>
