<svg width="75" height="88" viewBox="0 0 75 88" fill="none" xmlns="http://www.w3.org/2000/svg">
<path d="M23.436 84.8985C17.4997 82.0423 12.5964 77.5915 9.37354 71.6331L23.436 84.8985Z" fill="white"/>
<path d="M23.436 84.8985C17.4997 82.0423 12.5964 77.5915 9.37354 71.6331" stroke="white" stroke-width="5" stroke-linecap="round"/>
<path d="M46.875 4.35925C53.6858 2.54731 60.7171 4.27229 65.625 8.95924L46.875 4.35925Z" fill="white"/>
<path d="M46.875 4.35925C53.6858 2.54731 60.7171 4.27229 65.625 8.95924" stroke="white" stroke-width="5" stroke-linecap="round"/>
<path d="M31.4118 34.0273C32.2142 35.526 33.9797 36.0324 35.3554 35.1585C36.731 34.2845 37.1959 32.361 36.3938 30.8624L31.4118 34.0273ZM20.3449 44.9489C21.1472 46.4476 22.9128 46.954 24.2885 46.0798C25.6642 45.2061 26.1291 43.2827 25.3269 41.7837L20.3449 44.9489ZM53.0616 36.6406L54.4926 39.3682C55.1605 38.9522 55.648 38.2632 55.8471 37.454C56.0463 36.6444 55.9402 35.7821 55.5526 35.0583L53.0616 36.6406ZM56.7826 18.2312C57.5846 19.73 59.3501 20.2365 60.7261 19.3625C62.1018 18.4885 62.5666 16.5651 61.7642 15.0663L56.7826 18.2312ZM44.359 58.2152C45.1614 59.7138 46.9269 60.2202 48.3026 59.3465C49.6786 58.4723 50.1434 56.549 49.341 55.0503L44.359 58.2152ZM69.5921 29.6899C68.7897 28.1911 67.0242 27.6847 65.6486 28.5586C64.2729 29.4326 63.8081 31.3561 64.6101 32.8548L69.5921 29.6899ZM25.9154 78.6563C27.313 79.4882 29.0649 78.9282 29.8285 77.4056C30.5921 75.8831 30.0784 73.9748 28.6807 73.143L25.9154 78.6563ZM44.7619 75.9966C43.1871 76.2538 42.1018 77.8534 42.3378 79.569C42.5739 81.285 44.0418 82.4674 45.617 82.2103L44.7619 75.9966ZM8.21353 31.9017C10.6498 30.3849 13.0482 31.3173 13.8712 32.8548L18.8532 29.6899C16.1008 24.5481 9.92149 23.6019 5.35192 26.447L8.21353 31.9017ZM5.35192 26.447C0.773396 29.2976 -1.58071 35.5843 1.18594 40.7529L6.16786 37.588C5.35919 36.0772 5.78611 33.4131 8.21353 31.9017L5.35192 26.447ZM18.4645 9.83937L21.7013 15.8864L26.6832 12.7214L23.4464 6.67445L18.4645 9.83937ZM21.7013 15.8864L31.4118 34.0273L36.3938 30.8624L26.6832 12.7214L21.7013 15.8864ZM25.3269 41.7837L18.8532 29.6899L13.8712 32.8548L20.3449 44.9489L25.3269 41.7837ZM18.8532 29.6899L10.7611 14.5725L5.77915 17.7374L13.8712 32.8548L18.8532 29.6899ZM12.8067 8.88632C15.243 7.36945 17.6414 8.30189 18.4645 9.83937L23.4464 6.67445C20.6941 1.53264 14.5147 0.586501 9.94513 3.43154L12.8067 8.88632ZM9.94513 3.43154C5.36661 6.2822 3.0125 12.5688 5.77915 17.7374L10.7611 14.5725C9.9524 13.0617 10.3793 10.3977 12.8067 8.88632L9.94513 3.43154ZM34.3865 7.98834L44.0972 26.1293L49.0792 22.9643L39.3685 4.82342L34.3865 7.98834ZM44.0972 26.1293L50.571 38.223L55.5526 35.0583L49.0792 22.9643L44.0972 26.1293ZM28.7289 7.03529C31.1654 5.51842 33.5637 6.45087 34.3865 7.98834L39.3685 4.82342C36.6161 -0.318384 30.4368 -1.26452 25.8673 1.58052L28.7289 7.03529ZM25.8673 1.58052C21.2888 4.43117 18.9347 10.7178 21.7013 15.8864L26.6832 12.7214C25.8746 11.2107 26.3015 8.54663 28.7289 7.03529L25.8673 1.58052ZM51.1246 17.2782C53.5611 15.7613 55.9594 16.6938 56.7826 18.2312L61.7642 15.0663C59.0121 9.92456 52.8329 8.97838 48.263 11.8235L51.1246 17.2782ZM48.263 11.8235C43.6847 14.6741 41.3305 20.9607 44.0972 26.1293L49.0792 22.9643C48.2703 21.4536 48.6974 18.7895 51.1246 17.2782L48.263 11.8235ZM1.18594 40.7529L15.7517 67.9643L20.7337 64.7991L6.16786 37.588L1.18594 40.7529ZM66.4929 36.3721C72.6645 47.9018 68.0661 63.992 55.1297 72.046L57.9914 77.5011C73.0789 68.1076 79.6046 48.3948 71.4749 33.2072L66.4929 36.3721ZM49.341 55.0503C46.7447 50.1996 48.5621 43.0603 54.4926 39.3682L51.631 33.9133C43.5497 38.9451 39.8049 49.7071 44.359 58.2152L49.341 55.0503ZM64.6101 32.8548L66.4929 36.3721L71.4749 33.2072L69.5921 29.6899L64.6101 32.8548ZM28.6807 73.143C25.4026 71.1916 22.6525 68.384 20.7337 64.7991L15.7517 67.9643C18.2317 72.5972 21.7737 76.191 25.9154 78.6563L28.6807 73.143ZM55.1297 72.046C51.7863 74.1277 48.2588 75.4257 44.7619 75.9966L45.617 82.2103C49.8178 81.5242 54.0263 79.9698 57.9914 77.5011L55.1297 72.046Z" fill="white"/>
</svg>
