<svg width="48" height="45" viewBox="0 0 48 45" fill="none" xmlns="http://www.w3.org/2000/svg">
<path fill-rule="evenodd" clip-rule="evenodd" d="M43.3617 12.9073L45.6853 14.6015L48.0089 16.2987L46.1429 16.7975C46.6301 18.6602 46.8773 20.5762 46.8785 22.5C46.8806 26.9462 45.5479 31.2934 43.0488 34.9927C40.5496 38.692 36.996 41.5775 32.8367 43.285C28.6773 44.9925 24.0986 45.4454 19.6787 44.5865C15.2587 43.7276 11.1956 41.5955 8.00244 38.4593L10.6221 36.2456C13.3525 38.8565 16.8018 40.6157 20.5391 41.3034C24.2764 41.9911 28.1362 41.5769 31.6365 40.1124C35.1367 38.648 38.1223 36.1982 40.2203 33.069C42.3184 29.9399 43.436 26.27 43.4335 22.5177C43.4362 20.8953 43.2272 19.2793 42.8115 17.7096L41.092 18.1789L42.2224 15.5608L43.3617 12.9368V12.9073Z" fill="#575756"/>
<path fill-rule="evenodd" clip-rule="evenodd" d="M24.0912 5.40843e-06C30.113 -0.00411644 35.8909 2.34791 40.159 6.54074L37.5423 8.75443C34.8103 6.14383 31.3595 4.38555 27.621 3.69921C23.8825 3.01286 20.0219 3.42887 16.5215 4.89528C13.0211 6.36168 10.0361 8.81349 7.93912 11.9445C5.84218 15.0754 4.72632 18.7468 4.73092 22.5C4.73058 24.0405 4.91732 25.5754 5.28715 27.072L6.90499 26.6352L5.77758 29.2533L4.64719 31.8772L2.32359 30.183L0 28.477L1.96474 27.9427C1.12993 24.6259 1.07114 21.165 1.79282 17.8223C2.5145 14.4797 3.9977 11.3431 6.13001 8.6503C8.26231 5.95749 10.9877 3.77915 14.0997 2.28039C17.2117 0.781631 20.6285 0.0017991 24.0912 5.40843e-06Z" fill="#286C94"/>
<path fill-rule="evenodd" clip-rule="evenodd" d="M22.1414 20.8205L27.7545 26.4728L36.5764 17.5885V18.7544V21.3872V35.4221H32.9938L29.8329 32.2403H33.3527V24.634L27.7545 30.2715L18.3794 20.8205H22.1414Z" fill="#286C94"/>
<path fill-rule="evenodd" clip-rule="evenodd" d="M36.5764 9.88489H10.7029V35.4221H29.8329L26.6929 32.2403H13.9117V24.0201H18.7712L15.5953 20.8205H13.9117V13.0667H33.3527V18.2025L36.5764 14.9557V9.88489Z" fill="#575756"/>
</svg>
